<?xml version="1.0" encoding="utf-8" standalone="no"?>
<!DOCTYPE svg PUBLIC "-//W3C//DTD SVG 1.1//EN"
  "http://www.w3.org/Graphics/SVG/1.1/DTD/svg11.dtd">
<svg xmlns:xlink="http://www.w3.org/1999/xlink" width="684pt" height="335.952pt" viewBox="0 0 684 335.952" xmlns="http://www.w3.org/2000/svg" version="1.1">
 <metadata>
  <rdf:RDF xmlns:dc="http://purl.org/dc/elements/1.1/" xmlns:cc="http://creativecommons.org/ns#" xmlns:rdf="http://www.w3.org/1999/02/22-rdf-syntax-ns#">
   <cc:Work>
    <dc:type rdf:resource="http://purl.org/dc/dcmitype/StillImage"/>
    <dc:date>2026-09-14T05:30:25.399021</dc:date>
    <dc:format>image/svg+xml</dc:format>
    <dc:creator>
     <cc:Agent>
      <dc:title>Matplotlib v3.11.1, https://matplotlib.org/</dc:title>
     </cc:Agent>
    </dc:creator>
   </cc:Work>
  </rdf:RDF>
 </metadata>
 <defs>
  <style type="text/css">*{stroke-linejoin: round; stroke-linecap: butt}</style>
 </defs>
 <g id="figure_1">
  <g id="patch_1">
   <path d="M 0 335.952 
L 684 335.952 
L 684 0 
L 0 0 
z
" style="fill: #f5f8fb"/>
  </g>
  <g id="axes_1">
   <g id="patch_2">
    <path d="M 42.912 150.2352 
L 641.088 150.2352 
Q 647.784 150.2352 647.784 143.5824 
L 647.784 92.5776 
Q 647.784 85.9248 641.088 85.9248 
L 42.912 85.9248 
Q 36.216 85.9248 36.216 92.5776 
L 36.216 143.5824 
Q 36.216 150.2352 42.912 150.2352 
z
" clip-path="url(#p4e21695dfd)" style="fill: #ffffff; stroke: #007f86; stroke-width: 1.5; stroke-linejoin: miter"/>
   </g>
   <g id="patch_3">
    <path d="M 42.912 225.0792 
L 641.088 225.0792 
Q 647.784 225.0792 647.784 218.4264 
L 647.784 167.4216 
Q 647.784 160.7688 641.088 160.7688 
L 42.912 160.7688 
Q 36.216 160.7688 36.216 167.4216 
L 36.216 218.4264 
Q 36.216 225.0792 42.912 225.0792 
z
" clip-path="url(#p4e21695dfd)" style="fill: #ffffff; stroke: #007f86; stroke-width: 1.5; stroke-linejoin: miter"/>
   </g>
   <g id="patch_4">
    <path d="M 42.912 299.9232 
L 641.088 299.9232 
Q 647.784 299.9232 647.784 293.2704 
L 647.784 242.2656 
Q 647.784 235.6128 641.088 235.6128 
L 42.912 235.6128 
Q 36.216 235.6128 36.216 242.2656 
L 36.216 293.2704 
Q 36.216 299.9232 42.912 299.9232 
z
" clip-path="url(#p4e21695dfd)" style="fill: #ffffff; stroke: #007f86; stroke-width: 1.5; stroke-linejoin: miter"/>
   </g>
   <g id="text_1">
    <text style="font-weight: 700; font-size: 21px; font-family: 'Malgun Gothic', 'DejaVu Sans'; text-anchor: start; fill: #183449" x="23.94" y="41.767312" transform="rotate(-0 23.94 41.767312)">모델 계보를 구조별 지도처럼 읽기</text>
   </g>
   <g id="text_2">
    <text style="font-size: 11px; font-family: 'Malgun Gothic', 'DejaVu Sans'; text-anchor: start; fill: #516678" x="23.94" y="66.490687" transform="rotate(-0 23.94 66.490687)">대표 모델의 개념 계열 지도. 화살표는 직접적인 체크포인트 상속이나 성능 순위가 아니다.</text>
   </g>
   <g id="text_3">
    <text style="font-size: 15px; font-family: 'Malgun Gothic', 'DejaVu Sans'; text-anchor: middle; fill: #007f86" x="342" y="123.262031" transform="rotate(-0 342 123.262031)">인코더: BERT (2018) → RoBERTa · DistilBERT (2019)</text>
   </g>
   <g id="text_4">
    <text style="font-size: 15px; font-family: 'Malgun Gothic', 'DejaVu Sans'; text-anchor: middle; fill: #007f86" x="342" y="198.106031" transform="rotate(-0 342 198.106031)">디코더: GPT (2018) → GPT-2/3 → Llama · Qwen 계열</text>
   </g>
   <g id="text_5">
    <text style="font-size: 15px; font-family: 'Malgun Gothic', 'DejaVu Sans'; text-anchor: middle; fill: #007f86" x="342" y="272.950031" transform="rotate(-0 342 272.950031)">인코더–디코더: Transformer (2017) → T5 · BART (2019/2020)</text>
   </g>
  </g>
 </g>
 <defs>
  <clipPath id="p4e21695dfd">
   <rect x="7.2" y="7.2" width="669.6" height="321.552"/>
  </clipPath>
 </defs>
</svg>
