<?xml version="1.0" encoding="utf-8" standalone="no"?>
<!DOCTYPE svg PUBLIC "-//W3C//DTD SVG 1.1//EN"
  "http://www.w3.org/Graphics/SVG/1.1/DTD/svg11.dtd">
<svg xmlns:xlink="http://www.w3.org/1999/xlink" width="684pt" height="335.952pt" viewBox="0 0 684 335.952" xmlns="http://www.w3.org/2000/svg" version="1.1">
 <metadata>
  <rdf:RDF xmlns:dc="http://purl.org/dc/elements/1.1/" xmlns:cc="http://creativecommons.org/ns#" xmlns:rdf="http://www.w3.org/1999/02/22-rdf-syntax-ns#">
   <cc:Work>
    <dc:type rdf:resource="http://purl.org/dc/dcmitype/StillImage"/>
    <dc:date>2026-09-14T05:30:25.689833</dc:date>
    <dc:format>image/svg+xml</dc:format>
    <dc:creator>
     <cc:Agent>
      <dc:title>Matplotlib v3.11.1, https://matplotlib.org/</dc:title>
     </cc:Agent>
    </dc:creator>
   </cc:Work>
  </rdf:RDF>
 </metadata>
 <defs>
  <style type="text/css">*{stroke-linejoin: round; stroke-linecap: butt}</style>
 </defs>
 <g id="figure_1">
  <g id="patch_1">
   <path d="M 0 335.952 
L 684 335.952 
L 684 0 
L 0 0 
z
" style="fill: #f5f8fb"/>
  </g>
  <g id="axes_1">
   <g id="patch_2">
    <path d="M 34.542 222.3072 
L 209.568 222.3072 
Q 216.264 222.3072 216.264 215.6544 
L 216.264 128.6136 
Q 216.264 121.9608 209.568 121.9608 
L 34.542 121.9608 
Q 27.846 121.9608 27.846 128.6136 
L 27.846 215.6544 
Q 27.846 222.3072 34.542 222.3072 
z
" clip-path="url(#pa30291c4be)" style="fill: #ffffff; stroke: #007f86; stroke-width: 1.5; stroke-linejoin: miter"/>
   </g>
   <g id="patch_3">
    <path d="M 233.562 222.3072 
L 408.588 222.3072 
Q 415.284 222.3072 415.284 215.6544 
L 415.284 128.6136 
Q 415.284 121.9608 408.588 121.9608 
L 233.562 121.9608 
Q 226.866 121.9608 226.866 128.6136 
L 226.866 215.6544 
Q 226.866 222.3072 233.562 222.3072 
z
" clip-path="url(#pa30291c4be)" style="fill: #ffffff; stroke: #007f86; stroke-width: 1.5; stroke-linejoin: miter"/>
   </g>
   <g id="patch_4">
    <path d="M 432.582 222.3072 
L 607.608 222.3072 
Q 614.304 222.3072 614.304 215.6544 
L 614.304 128.6136 
Q 614.304 121.9608 607.608 121.9608 
L 432.582 121.9608 
Q 425.886 121.9608 425.886 128.6136 
L 425.886 215.6544 
Q 425.886 222.3072 432.582 222.3072 
z
" clip-path="url(#pa30291c4be)" style="fill: #ffffff; stroke: #007f86; stroke-width: 1.5; stroke-linejoin: miter"/>
   </g>
   <g id="text_1">
    <text style="font-weight: 700; font-size: 21px; font-family: 'Malgun Gothic', 'DejaVu Sans'; text-anchor: start; fill: #183449" x="23.94" y="41.767312" transform="rotate(-0 23.94 41.767312)">바꾸는 것이 데이터인가, 가중치인가, 입력인가</text>
   </g>
   <g id="text_2">
    <text style="font-size: 11px; font-family: 'Malgun Gothic', 'DejaVu Sans'; text-anchor: start; fill: #516678" x="23.94" y="66.490687" transform="rotate(-0 23.94 66.490687)">이번 실습은 세 번째: 준비된 기본 모델을 eval 모드로 사용한다.</text>
   </g>
   <g id="text_3">
    <text style="font-size: 13px; font-family: 'Malgun Gothic', 'DejaVu Sans'; fill: #007f86" transform="translate(96.055 156.995094)">사전학습</text>
    <text style="font-size: 13px; font-family: 'Malgun Gothic', 'DejaVu Sans'; fill: #007f86" transform="translate(80.769844 177.113609)">대규모 코퍼스</text>
    <text style="font-size: 13px; font-family: 'Malgun Gothic', 'DejaVu Sans'; fill: #007f86" transform="translate(87.269844 197.263609)">가중치 갱신</text>
   </g>
   <g id="patch_5">
    <path d="M 213.802179 172.4112 
Q 218.217151 172.4112 220.619662 172.4112 
" style="fill: none; stroke: #183449; stroke-width: 1.8; stroke-linecap: round"/>
    <path d="M 215.019662 169.6112 
L 220.619662 172.4112 
L 215.019662 175.2112 
" style="fill: none; stroke: #183449; stroke-width: 1.8; stroke-linecap: round"/>
   </g>
   <g id="text_4">
    <text style="font-size: 13px; font-family: 'Malgun Gothic', 'DejaVu Sans'; fill: #007f86" transform="translate(295.075 156.963609)">미세조정</text>
    <text style="font-size: 13px; font-family: 'Malgun Gothic', 'DejaVu Sans'; fill: #007f86" transform="translate(271.867969 177.113609)">특정 데이터·목표</text>
    <text style="font-size: 13px; font-family: 'Malgun Gothic', 'DejaVu Sans'; fill: #007f86" transform="translate(255.431094 197.060484)">일부/전체 가중치 갱신</text>
   </g>
   <g id="patch_6">
    <path d="M 412.822179 172.4112 
Q 417.237151 172.4112 419.639662 172.4112 
" style="fill: none; stroke: #183449; stroke-width: 1.8; stroke-linecap: round"/>
    <path d="M 414.039662 169.6112 
L 419.639662 172.4112 
L 414.039662 175.2112 
" style="fill: none; stroke: #183449; stroke-width: 1.8; stroke-linecap: round"/>
   </g>
   <g id="text_5">
    <text style="font-size: 13px; font-family: 'Malgun Gothic', 'DejaVu Sans'; fill: #007f86" transform="translate(478.809844 157.069234)">프롬프트 추론</text>
    <text style="font-size: 13px; font-family: 'Malgun Gothic', 'DejaVu Sans'; fill: #007f86" transform="translate(478.25125 177.113609)">지시·예시·문맥</text>
    <text style="font-size: 13px; font-family: 'Malgun Gothic', 'DejaVu Sans'; fill: #007f86" transform="translate(485.309844 197.263609)">가중치 유지</text>
   </g>
   <g id="text_6">
    <text style="font-size: 13px; font-family: 'Malgun Gothic', 'DejaVu Sans'; text-anchor: start; fill: #183449" x="29.52" y="289.944" transform="rotate(-0 29.52 289.944)">few-shot 예시를 프롬프트에 추가하는 것만으로 optimizer step이 실행되지는 않는다.</text>
   </g>
  </g>
 </g>
 <defs>
  <clipPath id="pa30291c4be">
   <rect x="7.2" y="7.2" width="669.6" height="321.552"/>
  </clipPath>
 </defs>
</svg>
