<?xml version="1.0" encoding="utf-8" standalone="no"?>
<!DOCTYPE svg PUBLIC "-//W3C//DTD SVG 1.1//EN"
  "http://www.w3.org/Graphics/SVG/1.1/DTD/svg11.dtd">
<svg xmlns:xlink="http://www.w3.org/1999/xlink" width="684pt" height="335.952pt" viewBox="0 0 684 335.952" xmlns="http://www.w3.org/2000/svg" version="1.1">
 <metadata>
  <rdf:RDF xmlns:dc="http://purl.org/dc/elements/1.1/" xmlns:cc="http://creativecommons.org/ns#" xmlns:rdf="http://www.w3.org/1999/02/22-rdf-syntax-ns#">
   <cc:Work>
    <dc:type rdf:resource="http://purl.org/dc/dcmitype/StillImage"/>
    <dc:date>2026-09-14T05:30:26.089633</dc:date>
    <dc:format>image/svg+xml</dc:format>
    <dc:creator>
     <cc:Agent>
      <dc:title>Matplotlib v3.11.1, https://matplotlib.org/</dc:title>
     </cc:Agent>
    </dc:creator>
   </cc:Work>
  </rdf:RDF>
 </metadata>
 <defs>
  <style type="text/css">*{stroke-linejoin: round; stroke-linecap: butt}</style>
 </defs>
 <g id="figure_1">
  <g id="patch_1">
   <path d="M 0 335.952 
L 684 335.952 
L 684 0 
L 0 0 
z
" style="fill: #f5f8fb"/>
  </g>
  <g id="axes_1">
   <g id="patch_2">
    <path d="M 34.542 222.3072 
L 159.813 222.3072 
Q 166.509 222.3072 166.509 215.6544 
L 166.509 128.6136 
Q 166.509 121.9608 159.813 121.9608 
L 34.542 121.9608 
Q 27.846 121.9608 27.846 128.6136 
L 27.846 215.6544 
Q 27.846 222.3072 34.542 222.3072 
z
" clip-path="url(#p387522d7d1)" style="fill: #ffffff; stroke: #007f86; stroke-width: 1.5; stroke-linejoin: miter"/>
   </g>
   <g id="patch_3">
    <path d="M 183.807 222.3072 
L 309.078 222.3072 
Q 315.774 222.3072 315.774 215.6544 
L 315.774 128.6136 
Q 315.774 121.9608 309.078 121.9608 
L 183.807 121.9608 
Q 177.111 121.9608 177.111 128.6136 
L 177.111 215.6544 
Q 177.111 222.3072 183.807 222.3072 
z
" clip-path="url(#p387522d7d1)" style="fill: #ffffff; stroke: #007f86; stroke-width: 1.5; stroke-linejoin: miter"/>
   </g>
   <g id="patch_4">
    <path d="M 333.072 222.3072 
L 458.343 222.3072 
Q 465.039 222.3072 465.039 215.6544 
L 465.039 128.6136 
Q 465.039 121.9608 458.343 121.9608 
L 333.072 121.9608 
Q 326.376 121.9608 326.376 128.6136 
L 326.376 215.6544 
Q 326.376 222.3072 333.072 222.3072 
z
" clip-path="url(#p387522d7d1)" style="fill: #ffffff; stroke: #007f86; stroke-width: 1.5; stroke-linejoin: miter"/>
   </g>
   <g id="patch_5">
    <path d="M 482.337 222.3072 
L 607.608 222.3072 
Q 614.304 222.3072 614.304 215.6544 
L 614.304 128.6136 
Q 614.304 121.9608 607.608 121.9608 
L 482.337 121.9608 
Q 475.641 121.9608 475.641 128.6136 
L 475.641 215.6544 
Q 475.641 222.3072 482.337 222.3072 
z
" clip-path="url(#p387522d7d1)" style="fill: #ffffff; stroke: #007f86; stroke-width: 1.5; stroke-linejoin: miter"/>
   </g>
   <g id="text_1">
    <text style="font-weight: 700; font-size: 21px; font-family: 'Malgun Gothic', 'DejaVu Sans'; text-anchor: start; fill: #183449" x="23.94" y="42.062625" transform="rotate(-0 23.94 42.062625)">텍스트 밖으로 확장하기: 출력의 형태를 먼저 구분</text>
   </g>
   <g id="text_2">
    <text style="font-size: 11px; font-family: 'Malgun Gothic', 'DejaVu Sans'; text-anchor: start; fill: #516678" x="23.94" y="66.490687" transform="rotate(-0 23.94 66.490687)">교재 그림 2-14의 과제 개념을 자체 텍스트 도식으로 재구성했다.</text>
   </g>
   <g id="text_3">
    <text style="font-size: 13px; font-family: 'Malgun Gothic', 'DejaVu Sans'; fill: #007f86" transform="translate(62.392344 167.038609)">이미지 분류</text>
    <text style="font-size: 13px; font-family: 'Malgun Gothic', 'DejaVu Sans'; fill: #007f86" transform="translate(53.931172 187.188609)">장면 → 클래스</text>
   </g>
   <g id="patch_6">
    <path d="M 164.047179 172.4112 
Q 168.462151 172.4112 170.864662 172.4112 
" style="fill: none; stroke: #183449; stroke-width: 1.8; stroke-linecap: round"/>
    <path d="M 165.264662 169.6112 
L 170.864662 172.4112 
L 165.264662 175.2112 
" style="fill: none; stroke: #183449; stroke-width: 1.8; stroke-linecap: round"/>
   </g>
   <g id="text_4">
    <text style="font-size: 13px; font-family: 'Malgun Gothic', 'DejaVu Sans'; fill: #007f86" transform="translate(218.157344 167.123922)">객체 검출</text>
    <text style="font-size: 13px; font-family: 'Malgun Gothic', 'DejaVu Sans'; fill: #007f86" transform="translate(190.735469 187.188609)">물체별 박스·클래스</text>
   </g>
   <g id="patch_7">
    <path d="M 313.312179 172.4112 
Q 317.727151 172.4112 320.129662 172.4112 
" style="fill: none; stroke: #183449; stroke-width: 1.8; stroke-linecap: round"/>
    <path d="M 314.529662 169.6112 
L 320.129662 172.4112 
L 314.529662 175.2112 
" style="fill: none; stroke: #183449; stroke-width: 1.8; stroke-linecap: round"/>
   </g>
   <g id="text_5">
    <text style="font-size: 13px; font-family: 'Malgun Gothic', 'DejaVu Sans'; fill: #007f86" transform="translate(367.422344 167.137125)">의미 분할</text>
    <text style="font-size: 13px; font-family: 'Malgun Gothic', 'DejaVu Sans'; fill: #007f86" transform="translate(354.422344 187.188609)">픽셀별 클래스</text>
   </g>
   <g id="patch_8">
    <path d="M 462.577179 172.4112 
Q 466.992151 172.4112 469.394662 172.4112 
" style="fill: none; stroke: #183449; stroke-width: 1.8; stroke-linecap: round"/>
    <path d="M 463.794662 169.6112 
L 469.394662 172.4112 
L 463.794662 175.2112 
" style="fill: none; stroke: #183449; stroke-width: 1.8; stroke-linecap: round"/>
   </g>
   <g id="text_6">
    <text style="font-size: 13px; font-family: 'Malgun Gothic', 'DejaVu Sans'; fill: #007f86" transform="translate(503.687344 167.038609)">이미지 캡셔닝</text>
    <text style="font-size: 13px; font-family: 'Malgun Gothic', 'DejaVu Sans'; fill: #007f86" transform="translate(492.941016 187.239391)">장면 → 설명 문장</text>
   </g>
   <g id="text_7">
    <text style="font-size: 13px; font-family: 'Malgun Gothic', 'DejaVu Sans'; fill: #183449" transform="translate(29.52 269.157203)">ViT는 이미지를 패치 시퀀스로 바꿔 처리할 수 있다.</text>
    <text style="font-size: 13px; font-family: 'Malgun Gothic', 'DejaVu Sans'; fill: #183449" transform="translate(29.52 289.944)">검출의 위치·종류 출력과 캡셔닝의 문장 출력을 동일한 과제로 부르지 않는다.</text>
   </g>
  </g>
 </g>
 <defs>
  <clipPath id="p387522d7d1">
   <rect x="7.2" y="7.2" width="669.6" height="321.552"/>
  </clipPath>
 </defs>
</svg>
