<?xml version="1.0" encoding="utf-8" standalone="no"?>
<!DOCTYPE svg PUBLIC "-//W3C//DTD SVG 1.1//EN"
  "http://www.w3.org/Graphics/SVG/1.1/DTD/svg11.dtd">
<svg xmlns:xlink="http://www.w3.org/1999/xlink" width="684pt" height="186.264pt" viewBox="0 0 684 186.264" xmlns="http://www.w3.org/2000/svg" version="1.1">
 <metadata>
  <rdf:RDF xmlns:dc="http://purl.org/dc/elements/1.1/" xmlns:cc="http://creativecommons.org/ns#" xmlns:rdf="http://www.w3.org/1999/02/22-rdf-syntax-ns#">
   <cc:Work>
    <dc:type rdf:resource="http://purl.org/dc/dcmitype/StillImage"/>
    <dc:date>2026-09-20T19:31:20.513867</dc:date>
    <dc:format>image/svg+xml</dc:format>
    <dc:creator>
     <cc:Agent>
      <dc:title>Matplotlib v3.11.1, https://matplotlib.org/</dc:title>
     </cc:Agent>
    </dc:creator>
   </cc:Work>
  </rdf:RDF>
 </metadata>
 <defs>
  <style type="text/css">*{stroke-linejoin: round; stroke-linecap: butt}</style>
 </defs>
 <g id="figure_1">
  <g id="patch_1">
   <path d="M 0 186.264 
L 684 186.264 
L 684 0 
L 0 0 
z
" style="fill: #ffffff"/>
  </g>
  <g id="axes_1">
   <g id="patch_2">
    <path d="M 11.634437 123.49464 
L 132.472848 123.49464 
Q 134.135762 123.49464 134.135762 121.776 
L 134.135762 64.488 
Q 134.135762 62.76936 132.472848 62.76936 
L 11.634437 62.76936 
Q 9.971523 62.76936 9.971523 64.488 
L 9.971523 121.776 
Q 9.971523 123.49464 11.634437 123.49464 
z
" clip-path="url(#pc031ee72fb)" style="fill: #dbeafe; stroke: #627b8d; stroke-linejoin: miter"/>
   </g>
   <g id="patch_3">
    <path d="M 144.66755 123.49464 
L 265.50596 123.49464 
Q 267.168874 123.49464 267.168874 121.776 
L 267.168874 64.488 
Q 267.168874 62.76936 265.50596 62.76936 
L 144.66755 62.76936 
Q 143.004636 62.76936 143.004636 64.488 
L 143.004636 121.776 
Q 143.004636 123.49464 144.66755 123.49464 
z
" clip-path="url(#pc031ee72fb)" style="fill: #cffafe; stroke: #627b8d; stroke-linejoin: miter"/>
   </g>
   <g id="patch_4">
    <path d="M 277.700662 123.49464 
L 398.539073 123.49464 
Q 400.201987 123.49464 400.201987 121.776 
L 400.201987 64.488 
Q 400.201987 62.76936 398.539073 62.76936 
L 277.700662 62.76936 
Q 276.037748 62.76936 276.037748 64.488 
L 276.037748 121.776 
Q 276.037748 123.49464 277.700662 123.49464 
z
" clip-path="url(#pc031ee72fb)" style="fill: #fef3c7; stroke: #627b8d; stroke-linejoin: miter"/>
   </g>
   <g id="patch_5">
    <path d="M 410.733775 123.49464 
L 531.572185 123.49464 
Q 533.235099 123.49464 533.235099 121.776 
L 533.235099 64.488 
Q 533.235099 62.76936 531.572185 62.76936 
L 410.733775 62.76936 
Q 409.070861 62.76936 409.070861 64.488 
L 409.070861 121.776 
Q 409.070861 123.49464 410.733775 123.49464 
z
" clip-path="url(#pc031ee72fb)" style="fill: #dcfce7; stroke: #627b8d; stroke-linejoin: miter"/>
   </g>
   <g id="patch_6">
    <path d="M 543.766887 123.49464 
L 664.605298 123.49464 
Q 666.268212 123.49464 666.268212 121.776 
L 666.268212 64.488 
Q 666.268212 62.76936 664.605298 62.76936 
L 543.766887 62.76936 
Q 542.103974 62.76936 542.103974 64.488 
L 542.103974 121.776 
Q 542.103974 123.49464 543.766887 123.49464 
z
" clip-path="url(#pc031ee72fb)" style="fill: #ede9fe; stroke: #627b8d; stroke-linejoin: miter"/>
   </g>
   <g id="text_1">
    <!-- 입력을 다시 만드는 두 신경망 -->
    <g style="fill: #123047" transform="translate(11.634437 27.2508) scale(0.19 -0.19)">
     <defs>
      <path id="MalgunGothicBold-88c" d="M 4703 2228 
L 4703 5466 
L 5472 5466 
L 5472 2228 
L 4703 2228 
z
M 2216 2375 
Q 1538 2375 1086 2804 
Q 634 3234 634 3884 
Q 634 4528 1084 4965 
Q 1534 5403 2216 5403 
Q 2906 5403 3357 4964 
Q 3809 4525 3809 3884 
Q 3809 3244 3354 2809 
Q 2900 2375 2216 2375 
z
M 2216 4750 
Q 1847 4750 1625 4509 
Q 1403 4269 1403 3884 
Q 1403 3500 1623 3258 
Q 1844 3016 2216 3016 
Q 2588 3016 2811 3259 
Q 3034 3503 3034 3884 
Q 3034 4269 2809 4509 
Q 2584 4750 2216 4750 
z
M 1581 -434 
L 1581 1972 
L 2350 1972 
L 2350 1356 
L 4703 1356 
L 4703 1972 
L 5466 1972 
L 5466 -434 
L 1581 -434 
z
M 4703 703 
L 2350 703 
L 2350 206 
L 4703 206 
L 4703 703 
z
" transform="scale(0.015625)"/>
      <path id="MalgunGothicBold-52c" d="M 3781 2822 
L 3781 3456 
L 4769 3456 
L 4769 4044 
L 3803 4044 
L 3803 4678 
L 4769 4678 
L 4769 5466 
L 5538 5466 
L 5538 1906 
L 4769 1906 
L 4769 2822 
L 3781 2822 
z
M 3744 2209 
Q 3094 2109 2711 2095 
Q 2328 2081 738 2081 
L 738 4013 
L 2741 4013 
L 2741 4616 
L 738 4616 
L 738 5253 
L 3513 5253 
L 3513 3400 
L 1503 3400 
L 1503 2719 
Q 2584 2719 2945 2739 
Q 3306 2759 3647 2847 
L 3744 2209 
z
M 4781 -563 
L 4781 984 
L 1544 984 
L 1544 1644 
L 5563 1644 
L 5563 -563 
L 4781 -563 
z
" transform="scale(0.015625)"/>
      <path id="MalgunGothicBold-873" d="M 3200 3334 
Q 2241 3334 1703 3623 
Q 1166 3913 1166 4397 
Q 1166 4888 1706 5173 
Q 2247 5459 3200 5459 
Q 4159 5459 4696 5176 
Q 5234 4894 5234 4397 
Q 5234 3909 4700 3621 
Q 4166 3334 3200 3334 
z
M 3200 4863 
Q 2581 4863 2273 4730 
Q 1966 4597 1966 4397 
Q 1966 4188 2278 4058 
Q 2591 3928 3200 3928 
Q 3809 3928 4121 4058 
Q 4434 4188 4434 4397 
Q 4434 4597 4126 4730 
Q 3819 4863 3200 4863 
z
M 403 2388 
L 403 3003 
L 5997 3003 
L 5997 2388 
L 403 2388 
z
M 1222 -466 
L 1222 1038 
L 4391 1038 
L 4391 1403 
L 1222 1403 
L 1222 2016 
L 5172 2016 
L 5172 494 
L 2003 494 
L 2003 147 
L 5319 147 
L 5319 -466 
L 1222 -466 
z
" transform="scale(0.015625)"/>
      <path id="MalgunGothicBold-3" transform="scale(0.015625)"/>
      <path id="MalgunGothicBold-429" d="M 5197 2522 
L 5197 -563 
L 4416 -563 
L 4416 5466 
L 5197 5466 
L 5197 3181 
L 6203 3181 
L 6203 2522 
L 5197 2522 
z
M 3969 1197 
Q 3269 1100 1619 1100 
L 709 1100 
L 709 4953 
L 3584 4953 
L 3584 4294 
L 1491 4294 
L 1491 1753 
L 1794 1753 
Q 3253 1753 3897 1844 
L 3969 1197 
z
" transform="scale(0.015625)"/>
      <path id="MalgunGothicBold-761" d="M 4672 -563 
L 4672 5466 
L 5453 5466 
L 5453 -563 
L 4672 -563 
z
M 3688 934 
Q 2819 1531 2303 2425 
Q 1813 1463 916 831 
L 306 1381 
Q 1009 1744 1461 2448 
Q 1913 3153 1913 3891 
L 1913 5063 
L 2700 5063 
L 2700 3909 
Q 2700 3191 3139 2516 
Q 3578 1841 4238 1556 
L 3688 934 
z
" transform="scale(0.015625)"/>
      <path id="MalgunGothicBold-580" d="M 5253 3016 
L 5253 1125 
L 4475 1125 
L 4475 5466 
L 5253 5466 
L 5253 3675 
L 6175 3675 
L 6175 3016 
L 5253 3016 
z
M 672 2338 
L 672 5075 
L 3494 5075 
L 3494 2338 
L 672 2338 
z
M 2719 4422 
L 1453 4422 
L 1453 2988 
L 2719 2988 
L 2719 4422 
z
M 1484 -353 
L 1484 1703 
L 2272 1703 
L 2272 306 
L 5422 306 
L 5422 -353 
L 1484 -353 
z
" transform="scale(0.015625)"/>
      <path id="MalgunGothicBold-493" d="M 1294 2175 
L 1294 4934 
L 5106 4934 
L 5106 4281 
L 2081 4281 
L 2081 2828 
L 5197 2828 
L 5197 2175 
L 1294 2175 
z
M 403 325 
L 403 978 
L 5997 978 
L 5997 325 
L 403 325 
z
" transform="scale(0.015625)"/>
      <path id="MalgunGothicBold-412" d="M 1253 3200 
L 1253 5166 
L 2041 5166 
L 2041 3866 
L 5228 3866 
L 5228 3200 
L 1253 3200 
z
M 403 1906 
L 403 2566 
L 5997 2566 
L 5997 1906 
L 403 1906 
z
M 1222 -306 
L 1222 1478 
L 2009 1478 
L 2009 353 
L 5253 353 
L 5253 -306 
L 1222 -306 
z
" transform="scale(0.015625)"/>
      <path id="MalgunGothicBold-47c" d="M 1269 2913 
L 1269 5247 
L 5153 5247 
L 5153 4588 
L 2053 4588 
L 2053 3572 
L 5191 3572 
L 5191 2913 
L 1269 2913 
z
M 3591 1569 
L 3591 -556 
L 2803 -556 
L 2803 1569 
L 403 1569 
L 403 2228 
L 5997 2228 
L 5997 1569 
L 3591 1569 
z
" transform="scale(0.015625)"/>
      <path id="MalgunGothicBold-763" d="M 4703 1153 
L 4703 5466 
L 5472 5466 
L 5472 1153 
L 4703 1153 
z
M 3688 1953 
Q 2819 2366 2309 3163 
Q 2163 2847 1730 2398 
Q 1297 1950 966 1772 
L 397 2338 
Q 1056 2625 1478 3189 
Q 1900 3753 1900 4334 
L 1900 5209 
L 2688 5209 
L 2688 4359 
Q 2688 3778 3123 3267 
Q 3559 2756 4184 2578 
L 3688 1953 
z
M 1581 -353 
L 1581 1703 
L 2369 1703 
L 2369 306 
L 5588 306 
L 5588 -353 
L 1581 -353 
z
" transform="scale(0.015625)"/>
      <path id="MalgunGothicBold-2be" d="M 3456 2631 
L 3456 3256 
L 4788 3256 
L 4788 3891 
L 3628 3891 
L 3628 4525 
L 4788 4525 
L 4788 5466 
L 5556 5466 
L 5556 2016 
L 4788 2016 
L 4788 2631 
L 3456 2631 
z
M 3713 5147 
Q 3500 3038 1025 1772 
L 453 2388 
Q 1281 2684 1900 3234 
Q 2519 3784 2759 4488 
L 813 4488 
L 813 5147 
L 3713 5147 
z
M 3659 -538 
Q 2725 -538 2201 -189 
Q 1678 159 1678 716 
Q 1678 1269 2203 1620 
Q 2728 1972 3659 1972 
Q 4594 1972 5122 1619 
Q 5650 1266 5650 716 
Q 5650 159 5123 -189 
Q 4597 -538 3659 -538 
z
M 3659 1325 
Q 3063 1325 2767 1156 
Q 2472 988 2472 716 
Q 2472 444 2770 276 
Q 3069 109 3659 109 
Q 4253 109 4554 275 
Q 4856 441 4856 716 
Q 4856 984 4557 1154 
Q 4259 1325 3659 1325 
z
" transform="scale(0.015625)"/>
      <path id="MalgunGothicBold-589" d="M 5259 3328 
L 5259 1947 
L 4475 1947 
L 4475 5466 
L 5259 5466 
L 5259 3988 
L 6175 3988 
L 6175 3328 
L 5259 3328 
z
M 672 2425 
L 672 5141 
L 3494 5141 
L 3494 2425 
L 672 2425 
z
M 2719 4488 
L 1453 4488 
L 1453 3078 
L 2719 3078 
L 2719 4488 
z
M 3347 -538 
Q 2388 -538 1863 -208 
Q 1338 122 1338 666 
Q 1338 1206 1869 1531 
Q 2400 1856 3347 1856 
Q 4297 1856 4826 1532 
Q 5356 1209 5356 666 
Q 5356 119 4829 -209 
Q 4303 -538 3347 -538 
z
M 3347 1203 
Q 2150 1203 2150 666 
Q 2150 116 3347 116 
Q 4550 116 4550 666 
Q 4550 1203 3347 1203 
z
" transform="scale(0.015625)"/>
     </defs>
     <use xlink:href="#MalgunGothicBold-88c"/>
     <use xlink:href="#MalgunGothicBold-52c" transform="translate(100 0)"/>
     <use xlink:href="#MalgunGothicBold-873" transform="translate(200 0)"/>
     <use xlink:href="#MalgunGothicBold-3" transform="translate(300 0)"/>
     <use xlink:href="#MalgunGothicBold-429" transform="translate(335.15625 0)"/>
     <use xlink:href="#MalgunGothicBold-761" transform="translate(435.15625 0)"/>
     <use xlink:href="#MalgunGothicBold-3" transform="translate(535.15625 0)"/>
     <use xlink:href="#MalgunGothicBold-580" transform="translate(570.3125 0)"/>
     <use xlink:href="#MalgunGothicBold-493" transform="translate(670.3125 0)"/>
     <use xlink:href="#MalgunGothicBold-412" transform="translate(770.3125 0)"/>
     <use xlink:href="#MalgunGothicBold-3" transform="translate(870.3125 0)"/>
     <use xlink:href="#MalgunGothicBold-47c" transform="translate(905.46875 0)"/>
     <use xlink:href="#MalgunGothicBold-3" transform="translate(1005.46875 0)"/>
     <use xlink:href="#MalgunGothicBold-763" transform="translate(1040.625 0)"/>
     <use xlink:href="#MalgunGothicBold-2be" transform="translate(1140.625 0)"/>
     <use xlink:href="#MalgunGothicBold-589" transform="translate(1240.625 0)"/>
    </g>
   </g>
   <g id="text_2">
    <!-- 입력 $x$ -->
    <g transform="translate(54.353642 91.090828) scale(0.12 -0.12)">
     <defs>
      <path id="MalgunGothic-88f" d="M 4947 2400 
L 4947 5466 
L 5416 5466 
L 5416 2400 
L 4947 2400 
z
M 2406 2559 
Q 1731 2559 1304 2959 
Q 878 3359 878 3969 
Q 878 4575 1303 4972 
Q 1728 5369 2406 5369 
Q 3081 5369 3509 4973 
Q 3938 4578 3938 3969 
Q 3938 3356 3508 2957 
Q 3078 2559 2406 2559 
z
M 2406 4966 
Q 1922 4966 1633 4689 
Q 1344 4413 1344 3969 
Q 1344 3522 1631 3242 
Q 1919 2963 2406 2963 
Q 2894 2963 3181 3242 
Q 3469 3522 3469 3969 
Q 3469 4413 3180 4689 
Q 2891 4966 2406 4966 
z
M 1709 -397 
L 1709 2069 
L 2169 2069 
L 2169 1203 
L 4953 1203 
L 4953 2069 
L 5416 2069 
L 5416 -397 
L 1709 -397 
z
M 4953 794 
L 2169 794 
L 2169 13 
L 4953 13 
L 4953 794 
z
" transform="scale(0.015625)"/>
      <path id="MalgunGothic-52f" d="M 3834 2994 
L 3834 3400 
L 4947 3400 
L 4947 4128 
L 3847 4128 
L 3847 4531 
L 4947 4531 
L 4947 5466 
L 5416 5466 
L 5416 1906 
L 4947 1906 
L 4947 2994 
L 3834 2994 
z
M 3828 2297 
Q 3347 2219 2886 2200 
Q 2425 2181 991 2181 
L 991 3950 
L 3009 3950 
L 3009 4794 
L 991 4794 
L 991 5203 
L 3475 5203 
L 3475 3553 
L 1459 3553 
L 1459 2591 
L 2181 2591 
Q 3206 2591 3763 2694 
L 3828 2297 
z
M 4947 -563 
L 4947 1159 
L 1491 1159 
L 1491 1575 
L 5416 1575 
L 5416 -563 
L 4947 -563 
z
" transform="scale(0.015625)"/>
      <path id="MalgunGothic-3" transform="scale(0.015625)"/>
      <path id="DejaVuSans-Oblique-5b" d="M 3841 3500 
L 2234 1784 
L 3219 0 
L 2559 0 
L 1819 1388 
L 531 0 
L -166 0 
L 1556 1844 
L 641 3500 
L 1300 3500 
L 1972 2234 
L 3144 3500 
L 3841 3500 
z
" transform="scale(0.015625)"/>
     </defs>
     <use xlink:href="#MalgunGothic-88f" transform="translate(0 0.59375)"/>
     <use xlink:href="#MalgunGothic-52f" transform="translate(100 0.59375)"/>
     <use xlink:href="#MalgunGothic-3" transform="translate(200 0.59375)"/>
     <use xlink:href="#DejaVuSans-Oblique-5b" transform="translate(235.15625 0.59375)"/>
    </g>
    <!-- 28 × 28 -->
    <g transform="translate(50.412392 103.090828) scale(0.12 -0.12)">
     <defs>
      <path id="MalgunGothic-15" d="M 2519 3372 
Q 2519 3784 2275 4018 
Q 2031 4253 1628 4253 
Q 1341 4253 1053 4104 
Q 766 3956 534 3697 
L 534 4234 
Q 981 4675 1691 4675 
Q 2281 4675 2642 4334 
Q 3003 3994 3003 3416 
Q 3003 2919 2772 2545 
Q 2541 2172 1984 1775 
Q 1459 1406 1254 1215 
Q 1050 1025 967 854 
Q 884 684 884 450 
L 3116 450 
L 3116 0 
L 356 0 
L 356 225 
Q 356 603 461 870 
Q 566 1138 811 1392 
Q 1056 1647 1597 2022 
Q 2091 2363 2305 2670 
Q 2519 2978 2519 3372 
z
" transform="scale(0.015625)"/>
      <path id="MalgunGothic-1b" d="M 303 1281 
Q 303 1669 539 2011 
Q 775 2353 1153 2494 
Q 856 2647 675 2915 
Q 494 3184 494 3500 
Q 494 3828 659 4098 
Q 825 4369 1122 4522 
Q 1419 4675 1778 4675 
Q 2334 4675 2700 4342 
Q 3066 4009 3066 3500 
Q 3066 3181 2881 2914 
Q 2697 2647 2413 2494 
Q 2788 2350 3022 2009 
Q 3256 1669 3256 1281 
Q 3256 672 2843 297 
Q 2431 -78 1778 -78 
Q 1131 -78 717 301 
Q 303 681 303 1281 
z
M 809 1328 
Q 809 878 1081 611 
Q 1353 344 1781 344 
Q 2206 344 2482 619 
Q 2759 894 2759 1328 
Q 2759 1731 2482 2011 
Q 2206 2291 1781 2291 
Q 1372 2291 1090 2020 
Q 809 1750 809 1328 
z
M 1003 3459 
Q 1003 3125 1234 2900 
Q 1466 2675 1781 2675 
Q 2097 2675 2330 2900 
Q 2563 3125 2563 3459 
Q 2563 3803 2341 4026 
Q 2119 4250 1781 4250 
Q 1450 4250 1226 4029 
Q 1003 3809 1003 3459 
z
" transform="scale(0.015625)"/>
      <path id="MalgunGothic-150" d="M 3622 831 
L 3328 538 
L 2238 1628 
L 1156 538 
L 863 831 
L 1956 1916 
L 863 3003 
L 1159 3294 
L 2238 2203 
L 3328 3294 
L 3622 3003 
L 2531 1916 
L 3622 831 
z
" transform="scale(0.015625)"/>
     </defs>
     <use xlink:href="#MalgunGothic-15"/>
     <use xlink:href="#MalgunGothic-1b" transform="translate(55.078125 0)"/>
     <use xlink:href="#MalgunGothic-3" transform="translate(110.15625 0)"/>
     <use xlink:href="#MalgunGothic-150" transform="translate(145.3125 0)"/>
     <use xlink:href="#MalgunGothic-3" transform="translate(215.375 0)"/>
     <use xlink:href="#MalgunGothic-15" transform="translate(250.53125 0)"/>
     <use xlink:href="#MalgunGothic-1b" transform="translate(305.609375 0)"/>
    </g>
   </g>
   <g id="patch_7">
    <path d="M 136.687512 93.132 
Q 138.012416 93.132 138.219287 93.132 
" style="fill: none; stroke: #34495e; stroke-linecap: round"/>
    <path d="M 133.819287 90.932 
L 138.219287 93.132 
L 133.819287 95.332 
" style="fill: none; stroke: #34495e; stroke-linecap: round"/>
   </g>
   <g id="text_3">
    <!-- 인코더 -->
    <g transform="translate(187.086755 91.055203) scale(0.12 -0.12)">
     <defs>
      <path id="MalgunGothic-889" d="M 4947 1063 
L 4947 5466 
L 5416 5466 
L 5416 1063 
L 4947 1063 
z
M 2438 2175 
Q 1763 2175 1309 2601 
Q 856 3028 856 3706 
Q 856 4388 1307 4811 
Q 1759 5234 2438 5234 
Q 3116 5234 3564 4812 
Q 4013 4391 4013 3706 
Q 4013 3028 3563 2601 
Q 3113 2175 2438 2175 
z
M 2438 4819 
Q 1944 4819 1634 4516 
Q 1325 4213 1325 3706 
Q 1325 3200 1633 2895 
Q 1941 2591 2438 2591 
Q 2934 2591 3243 2895 
Q 3553 3200 3553 3706 
Q 3553 4213 3243 4516 
Q 2934 4819 2438 4819 
z
M 1613 -331 
L 1613 1625 
L 2081 1625 
L 2081 91 
L 5575 91 
L 5575 -331 
L 1613 -331 
z
" transform="scale(0.015625)"/>
      <path id="MalgunGothic-a0d" d="M 5006 1478 
L 4563 1528 
Q 4656 2344 4666 3047 
L 959 2797 
L 863 3244 
L 4666 3438 
L 4672 4481 
L 1147 4481 
L 1147 4891 
L 5141 4891 
L 5141 3481 
Q 5141 2375 5006 1478 
z
M 403 416 
L 403 838 
L 2656 838 
L 2656 2309 
L 3122 2309 
L 3122 838 
L 5997 838 
L 5997 416 
L 403 416 
z
" transform="scale(0.015625)"/>
      <path id="MalgunGothic-448" d="M 4891 -563 
L 4891 2859 
L 3116 2859 
L 3116 3272 
L 4891 3272 
L 4891 5466 
L 5356 5466 
L 5356 -563 
L 4891 -563 
z
M 4172 1141 
Q 3694 1084 3136 1070 
Q 2578 1056 928 1056 
L 928 4984 
L 3841 4984 
L 3841 4563 
L 1394 4563 
L 1394 1472 
Q 3638 1472 4141 1544 
L 4172 1141 
z
" transform="scale(0.015625)"/>
     </defs>
     <use xlink:href="#MalgunGothic-889"/>
     <use xlink:href="#MalgunGothic-a0d" transform="translate(100 0)"/>
     <use xlink:href="#MalgunGothic-448" transform="translate(200 0)"/>
    </g>
    <!-- $f_\theta(x)$ -->
    <g transform="translate(192.006755 103.055203) scale(0.12 -0.12)">
     <defs>
      <path id="DejaVuSans-Oblique-49" d="M 3059 4863 
L 2969 4384 
L 2419 4384 
Q 2106 4384 1964 4261 
Q 1822 4138 1753 3809 
L 1691 3500 
L 2638 3500 
L 2553 3053 
L 1606 3053 
L 1013 0 
L 434 0 
L 1031 3053 
L 481 3053 
L 563 3500 
L 1113 3500 
L 1159 3744 
Q 1278 4363 1576 4613 
Q 1875 4863 2516 4863 
L 3059 4863 
z
" transform="scale(0.015625)"/>
      <path id="DejaVuSans-Oblique-34c" d="M 2913 2219 
L 925 2219 
Q 791 1284 928 888 
Q 1100 400 1566 400 
Q 2034 400 2391 891 
Q 2703 1322 2913 2219 
z
M 3009 2750 
Q 3094 3638 2984 3950 
Q 2813 4444 2353 4444 
Q 1875 4444 1525 3956 
Q 1250 3563 1034 2750 
L 3009 2750 
z
M 2444 4913 
Q 3194 4913 3494 4250 
Q 3794 3591 3566 2422 
Q 3341 1256 2781 594 
Q 2225 -72 1475 -72 
Q 722 -72 425 594 
Q 128 1256 353 2422 
Q 581 3591 1134 4250 
Q 1691 4913 2444 4913 
z
" transform="scale(0.015625)"/>
      <path id="DejaVuSans-b" d="M 1984 4856 
Q 1566 4138 1362 3434 
Q 1159 2731 1159 2009 
Q 1159 1288 1364 580 
Q 1569 -128 1984 -844 
L 1484 -844 
Q 1016 -109 783 600 
Q 550 1309 550 2009 
Q 550 2706 781 3412 
Q 1013 4119 1484 4856 
L 1984 4856 
z
" transform="scale(0.015625)"/>
      <path id="DejaVuSans-c" d="M 513 4856 
L 1013 4856 
Q 1481 4119 1714 3412 
Q 1947 2706 1947 2009 
Q 1947 1309 1714 600 
Q 1481 -109 1013 -844 
L 513 -844 
Q 928 -128 1133 580 
Q 1338 1288 1338 2009 
Q 1338 2731 1133 3434 
Q 928 4138 513 4856 
z
" transform="scale(0.015625)"/>
     </defs>
     <use xlink:href="#DejaVuSans-Oblique-49" transform="translate(0 0.015625)"/>
     <use xlink:href="#DejaVuSans-Oblique-34c" transform="translate(35.205078 -14.984326) scale(0.7)"/>
     <use xlink:href="#DejaVuSans-b" transform="translate(80.766602 0.015625)"/>
     <use xlink:href="#DejaVuSans-Oblique-5b" transform="translate(119.780273 0.015625)"/>
     <use xlink:href="#DejaVuSans-c" transform="translate(178.959961 0.015625)"/>
    </g>
   </g>
   <g id="patch_8">
    <path d="M 269.720624 93.132 
Q 271.045529 93.132 271.252399 93.132 
" style="fill: none; stroke: #34495e; stroke-linecap: round"/>
    <path d="M 266.852399 90.932 
L 271.252399 93.132 
L 266.852399 95.332 
" style="fill: none; stroke: #34495e; stroke-linecap: round"/>
   </g>
   <g id="text_4">
    <!-- 잠재 표현 $z$ -->
    <g transform="translate(306.739868 90.765281) scale(0.12 -0.12)">
     <defs>
      <path id="MalgunGothic-89c" d="M 5125 3438 
L 5125 2138 
L 4659 2138 
L 4659 5466 
L 5125 5466 
L 5125 3859 
L 6034 3859 
L 6034 3438 
L 5125 3438 
z
M 3603 2350 
Q 3200 2566 2773 2973 
Q 2347 3381 2188 3719 
Q 2022 3331 1606 2886 
Q 1191 2441 750 2194 
L 409 2516 
Q 1075 2838 1514 3431 
Q 1953 4025 1953 4659 
L 1953 4781 
L 622 4781 
L 622 5197 
L 3731 5197 
L 3731 4781 
L 2400 4781 
L 2400 4659 
Q 2400 4056 2845 3503 
Q 3291 2950 3909 2688 
L 3603 2350 
z
M 1447 -397 
L 1447 1806 
L 5125 1806 
L 5125 -397 
L 1447 -397 
z
M 4666 1394 
L 1906 1394 
L 1906 13 
L 4666 13 
L 4666 1394 
z
" transform="scale(0.015625)"/>
      <path id="MalgunGothic-8a2" d="M 5069 -563 
L 5069 2375 
L 4353 2375 
L 4353 -378 
L 3891 -378 
L 3891 5344 
L 4353 5344 
L 4353 2791 
L 5069 2791 
L 5069 5466 
L 5538 5466 
L 5538 -563 
L 5069 -563 
z
M 3181 884 
Q 2791 1266 2461 1781 
Q 2131 2297 2041 2681 
Q 1959 2263 1606 1722 
Q 1253 1181 838 800 
L 475 1088 
Q 1016 1478 1420 2233 
Q 1825 2988 1825 3750 
L 1825 4525 
L 691 4525 
L 691 4941 
L 3425 4941 
L 3425 4525 
L 2284 4525 
L 2284 3756 
Q 2284 3006 2648 2281 
Q 3013 1556 3531 1184 
L 3181 884 
z
" transform="scale(0.015625)"/>
      <path id="MalgunGothic-af2" d="M 997 4897 
L 5403 4897 
L 5403 4488 
L 997 4488 
L 997 4897 
z
M 4481 2566 
L 5478 2566 
L 5478 2156 
L 4494 2156 
L 4494 756 
L 5997 756 
L 5997 341 
L 403 341 
L 403 756 
L 1906 756 
L 1906 2156 
L 922 2156 
L 922 2566 
L 1919 2566 
L 1844 4172 
L 2303 4172 
L 2381 2566 
L 4019 2566 
L 4097 4172 
L 4556 4172 
L 4481 2566 
z
M 2375 756 
L 4025 756 
L 4025 2156 
L 2375 2156 
L 2375 756 
z
" transform="scale(0.015625)"/>
      <path id="MalgunGothic-b43" d="M 3950 1984 
L 3950 2388 
L 4947 2388 
L 4947 3284 
L 3950 3284 
L 3950 3694 
L 4947 3694 
L 4947 5466 
L 5416 5466 
L 5416 953 
L 4947 953 
L 4947 1984 
L 3950 1984 
z
M 494 4213 
L 494 4628 
L 2028 4628 
L 2028 5422 
L 2491 5422 
L 2491 4628 
L 4025 4628 
L 4025 4213 
L 494 4213 
z
M 2253 1734 
Q 1578 1734 1189 2051 
Q 800 2369 800 2822 
Q 800 3275 1192 3589 
Q 1584 3903 2259 3903 
Q 2928 3903 3320 3589 
Q 3713 3275 3713 2822 
Q 3713 2369 3323 2051 
Q 2934 1734 2253 1734 
z
M 2259 3506 
Q 1803 3506 1536 3311 
Q 1269 3116 1269 2822 
Q 1269 2525 1539 2328 
Q 1809 2131 2259 2131 
Q 2713 2131 2978 2329 
Q 3244 2528 3244 2822 
Q 3244 3113 2980 3309 
Q 2716 3506 2259 3506 
z
M 1581 -397 
L 1581 1253 
L 2041 1253 
L 2041 13 
L 5575 13 
L 5575 -397 
L 1581 -397 
z
" transform="scale(0.015625)"/>
      <path id="DejaVuSans-Oblique-5d" d="M 744 3500 
L 3475 3500 
L 3372 2975 
L 738 459 
L 2913 459 
L 2822 0 
L -19 0 
L 84 525 
L 2719 3041 
L 653 3041 
L 744 3500 
z
" transform="scale(0.015625)"/>
     </defs>
     <use xlink:href="#MalgunGothic-89c" transform="translate(0 0.59375)"/>
     <use xlink:href="#MalgunGothic-8a2" transform="translate(100 0.59375)"/>
     <use xlink:href="#MalgunGothic-3" transform="translate(200 0.59375)"/>
     <use xlink:href="#MalgunGothic-af2" transform="translate(235.15625 0.59375)"/>
     <use xlink:href="#MalgunGothic-b43" transform="translate(335.15625 0.59375)"/>
     <use xlink:href="#MalgunGothic-3" transform="translate(435.15625 0.59375)"/>
     <use xlink:href="#DejaVuSans-Oblique-5d" transform="translate(470.3125 0.59375)"/>
    </g>
    <!-- 16개 수 -->
    <g transform="translate(317.401118 103.416375) scale(0.12 -0.12)">
     <defs>
      <path id="MalgunGothic-14" d="M 2231 0 
L 1734 0 
L 1734 3972 
Q 1591 3828 1266 3661 
Q 941 3494 672 3428 
L 672 3959 
Q 1016 4056 1409 4275 
Q 1803 4494 2031 4700 
L 2231 4700 
L 2231 0 
z
" transform="scale(0.015625)"/>
      <path id="MalgunGothic-19" d="M 2981 4069 
Q 2619 4250 2228 4250 
Q 1591 4250 1228 3689 
Q 866 3128 869 2213 
L 884 2213 
Q 1203 2872 1938 2872 
Q 2547 2872 2903 2478 
Q 3259 2084 3259 1450 
Q 3259 797 2857 359 
Q 2456 -78 1825 -78 
Q 1116 -78 736 478 
Q 356 1034 356 2019 
Q 356 3181 847 3928 
Q 1338 4675 2222 4675 
Q 2700 4675 2981 4544 
L 2981 4069 
z
M 906 1506 
Q 906 1022 1165 683 
Q 1425 344 1844 344 
Q 2247 344 2498 645 
Q 2750 947 2750 1388 
Q 2750 1888 2509 2167 
Q 2269 2447 1838 2447 
Q 1444 2447 1175 2173 
Q 906 1900 906 1506 
z
" transform="scale(0.015625)"/>
      <path id="MalgunGothic-28e" d="M 5038 -563 
L 5038 2431 
L 4288 2431 
L 4288 -378 
L 3828 -378 
L 3828 5344 
L 4288 5344 
L 4288 2847 
L 5038 2847 
L 5038 5466 
L 5503 5466 
L 5503 -563 
L 5038 -563 
z
M 3078 4941 
Q 2981 2394 813 878 
L 441 1197 
Q 1263 1634 1891 2575 
Q 2519 3516 2584 4531 
L 800 4531 
L 800 4941 
L 3078 4941 
z
" transform="scale(0.015625)"/>
      <path id="MalgunGothic-739" d="M 5491 2994 
Q 4750 3097 4078 3498 
Q 3406 3900 3200 4275 
Q 2975 3891 2309 3491 
Q 1644 3091 922 2956 
L 634 3347 
Q 1559 3450 2261 3942 
Q 2963 4434 2963 5013 
L 2963 5275 
L 3431 5275 
L 3431 5013 
Q 3431 4431 4118 3948 
Q 4806 3466 5766 3378 
L 5491 2994 
z
M 3431 1838 
L 3431 -563 
L 2963 -563 
L 2963 1838 
L 403 1838 
L 403 2253 
L 5997 2253 
L 5997 1838 
L 3431 1838 
z
" transform="scale(0.015625)"/>
     </defs>
     <use xlink:href="#MalgunGothic-14"/>
     <use xlink:href="#MalgunGothic-19" transform="translate(55.078125 0)"/>
     <use xlink:href="#MalgunGothic-28e" transform="translate(110.15625 0)"/>
     <use xlink:href="#MalgunGothic-3" transform="translate(210.15625 0)"/>
     <use xlink:href="#MalgunGothic-739" transform="translate(245.3125 0)"/>
    </g>
   </g>
   <g id="patch_9">
    <path d="M 402.753737 93.132 
Q 404.078641 93.132 404.285512 93.132 
" style="fill: none; stroke: #34495e; stroke-linecap: round"/>
    <path d="M 399.885512 90.932 
L 404.285512 93.132 
L 399.885512 95.332 
" style="fill: none; stroke: #34495e; stroke-linecap: round"/>
   </g>
   <g id="text_5">
    <!-- 디코더 -->
    <g transform="translate(453.15298 90.456375) scale(0.12 -0.12)">
     <defs>
      <path id="MalgunGothic-4a1" d="M 4947 -563 
L 4947 5466 
L 5416 5466 
L 5416 -563 
L 4947 -563 
z
M 4250 1153 
Q 3753 1094 3154 1078 
Q 2556 1063 1013 1063 
L 1013 4928 
L 3916 4928 
L 3916 4513 
L 1478 4513 
L 1478 1478 
Q 3722 1478 4219 1556 
L 4250 1153 
z
" transform="scale(0.015625)"/>
     </defs>
     <use xlink:href="#MalgunGothic-4a1"/>
     <use xlink:href="#MalgunGothic-a0d" transform="translate(100 0)"/>
     <use xlink:href="#MalgunGothic-448" transform="translate(200 0)"/>
    </g>
    <!-- $g_\phi(z)$ -->
    <g transform="translate(456.57298 102.456375) scale(0.12 -0.12)">
     <defs>
      <path id="DejaVuSans-Oblique-4a" d="M 3816 3500 
L 3219 434 
Q 3047 -456 2561 -893 
Q 2075 -1331 1253 -1331 
Q 950 -1331 690 -1286 
Q 431 -1241 206 -1147 
L 313 -588 
Q 525 -725 762 -790 
Q 1000 -856 1269 -856 
Q 1816 -856 2167 -557 
Q 2519 -259 2631 300 
L 2681 563 
Q 2441 288 2122 144 
Q 1803 0 1434 0 
Q 903 0 598 351 
Q 294 703 294 1319 
Q 294 1803 478 2267 
Q 663 2731 997 3091 
Q 1219 3328 1514 3456 
Q 1809 3584 2131 3584 
Q 2484 3584 2746 3420 
Q 3009 3256 3138 2956 
L 3238 3500 
L 3816 3500 
z
M 2950 2216 
Q 2950 2641 2750 2872 
Q 2550 3103 2181 3103 
Q 1953 3103 1747 3012 
Q 1541 2922 1394 2759 
Q 1156 2491 1023 2127 
Q 891 1763 891 1375 
Q 891 944 1092 712 
Q 1294 481 1672 481 
Q 2219 481 2584 976 
Q 2950 1472 2950 2216 
z
" transform="scale(0.015625)"/>
      <path id="DejaVuSans-Oblique-369" d="M 2991 4863 
L 2738 3572 
Q 3363 3572 3684 3094 
Q 4016 2606 3850 1747 
Q 3681 888 3159 400 
Q 2653 -78 2028 -78 
L 1784 -1331 
L 1213 -1331 
L 1456 -78 
Q 834 -78 509 400 
Q 178 888 347 1747 
Q 513 2606 1034 3094 
Q 1544 3572 2166 3572 
L 2419 4863 
L 2991 4863 
z
M 2128 434 
Q 2481 434 2784 756 
Q 3116 1116 3244 1747 
Q 3369 2372 3169 2738 
Q 2991 3059 2638 3059 
L 2128 434 
z
M 1556 434 
L 2066 3059 
Q 1716 3059 1413 2738 
Q 1072 2372 953 1747 
Q 834 1116 1028 756 
Q 1203 434 1556 434 
z
" transform="scale(0.015625)"/>
     </defs>
     <use xlink:href="#DejaVuSans-Oblique-4a" transform="translate(0 0.125)"/>
     <use xlink:href="#DejaVuSans-Oblique-369" transform="translate(63.476562 -14.874951) scale(0.7)"/>
     <use xlink:href="#DejaVuSans-b" transform="translate(112.387695 0.125)"/>
     <use xlink:href="#DejaVuSans-Oblique-5d" transform="translate(151.401367 0.125)"/>
     <use xlink:href="#DejaVuSans-c" transform="translate(203.891602 0.125)"/>
    </g>
   </g>
   <g id="patch_10">
    <path d="M 535.786849 93.132 
Q 537.111754 93.132 537.318625 93.132 
" style="fill: none; stroke: #34495e; stroke-linecap: round"/>
    <path d="M 532.918625 90.932 
L 537.318625 93.132 
L 532.918625 95.332 
" style="fill: none; stroke: #34495e; stroke-linecap: round"/>
   </g>
   <g id="text_6">
    <!-- 복원 $\hat{x}$ -->
    <g transform="translate(586.486093 91.450828) scale(0.12 -0.12)">
     <defs>
      <path id="MalgunGothic-640" d="M 403 1984 
L 403 2400 
L 2963 2400 
L 2963 3097 
L 1356 3097 
L 1356 5350 
L 1819 5350 
L 1819 4647 
L 4581 4647 
L 4581 5350 
L 5044 5350 
L 5044 3097 
L 3438 3097 
L 3438 2400 
L 5997 2400 
L 5997 1984 
L 403 1984 
z
M 4581 4231 
L 1819 4231 
L 1819 3506 
L 4581 3506 
L 4581 4231 
z
M 4609 -563 
L 4609 966 
L 1197 966 
L 1197 1381 
L 5075 1381 
L 5075 -563 
L 4609 -563 
z
" transform="scale(0.015625)"/>
      <path id="MalgunGothic-855" d="M 4978 697 
L 4978 1344 
L 3659 1344 
L 3659 1759 
L 4978 1759 
L 4978 5466 
L 5453 5466 
L 5453 697 
L 4978 697 
z
M 2625 3059 
Q 1966 3059 1548 3390 
Q 1131 3722 1131 4213 
Q 1131 4697 1545 5026 
Q 1959 5356 2625 5356 
Q 3288 5356 3702 5029 
Q 4116 4703 4116 4213 
Q 4116 3719 3700 3389 
Q 3284 3059 2625 3059 
z
M 2625 4959 
Q 2163 4959 1881 4734 
Q 1600 4509 1600 4213 
Q 1600 3909 1881 3682 
Q 2163 3456 2625 3456 
Q 3088 3456 3370 3682 
Q 3653 3909 3653 4213 
Q 3653 4509 3370 4734 
Q 3088 4959 2625 4959 
z
M 4556 2291 
Q 4100 2259 2881 2209 
L 2881 909 
L 2419 909 
L 2419 2188 
Q 1209 2144 641 2144 
L 575 2578 
Q 2853 2578 4525 2694 
L 4556 2291 
z
M 1509 -403 
L 1509 1403 
L 1978 1403 
L 1978 13 
L 5600 13 
L 5600 -403 
L 1509 -403 
z
" transform="scale(0.015625)"/>
      <path id="DejaVuSans-2b3" d="M -1831 5119 
L -1369 5119 
L -603 3944 
L -1038 3944 
L -1600 4709 
L -2163 3944 
L -2597 3944 
L -1831 5119 
z
M -1600 3584 
L -1600 3584 
z
" transform="scale(0.015625)"/>
     </defs>
     <use xlink:href="#MalgunGothic-640" transform="translate(0 0.828125)"/>
     <use xlink:href="#MalgunGothic-855" transform="translate(100 0.828125)"/>
     <use xlink:href="#MalgunGothic-3" transform="translate(200 0.828125)"/>
     <use xlink:href="#DejaVuSans-2b3" transform="translate(297.529297 12.015625)"/>
     <use xlink:href="#DejaVuSans-Oblique-5b" transform="translate(235.15625 0.828125)"/>
    </g>
    <!-- 28 × 28 -->
    <g transform="translate(582.544843 103.450828) scale(0.12 -0.12)">
     <use xlink:href="#MalgunGothic-15"/>
     <use xlink:href="#MalgunGothic-1b" transform="translate(55.078125 0)"/>
     <use xlink:href="#MalgunGothic-3" transform="translate(110.15625 0)"/>
     <use xlink:href="#MalgunGothic-150" transform="translate(145.3125 0)"/>
     <use xlink:href="#MalgunGothic-3" transform="translate(215.375 0)"/>
     <use xlink:href="#MalgunGothic-15" transform="translate(250.53125 0)"/>
     <use xlink:href="#MalgunGothic-1b" transform="translate(305.609375 0)"/>
    </g>
   </g>
   <g id="text_7">
    <!-- 학습: 원본과 복원의 오차로 두 신경망을 함께 갱신  |  숫자 라벨은 손실에 들어가지 않음 -->
    <g style="fill: #34495e" transform="translate(11.634437 159.0132) scale(0.11 -0.11)">
     <defs>
      <path id="MalgunGothic-b1d" d="M 447 4347 
L 447 4763 
L 2003 4763 
L 2003 5497 
L 2478 5497 
L 2478 4763 
L 4019 4763 
L 4019 4347 
L 447 4347 
z
M 5125 3150 
L 5125 1800 
L 4659 1800 
L 4659 5466 
L 5125 5466 
L 5125 3566 
L 6034 3566 
L 6034 3150 
L 5125 3150 
z
M 2241 1941 
Q 1547 1941 1151 2234 
Q 756 2528 756 2988 
Q 756 3444 1151 3737 
Q 1547 4031 2247 4031 
Q 2947 4031 3342 3737 
Q 3738 3444 3738 2988 
Q 3738 2534 3336 2237 
Q 2934 1941 2241 1941 
z
M 2247 3634 
Q 1769 3634 1492 3456 
Q 1216 3278 1216 2988 
Q 1216 2703 1489 2520 
Q 1763 2338 2247 2338 
Q 2731 2338 3004 2520 
Q 3278 2703 3278 2988 
Q 3278 3278 3001 3456 
Q 2725 3634 2247 3634 
z
M 4659 -563 
L 4659 1063 
L 1191 1063 
L 1191 1472 
L 5119 1472 
L 5119 -563 
L 4659 -563 
z
" transform="scale(0.015625)"/>
      <path id="MalgunGothic-761" d="M 5459 3303 
Q 4731 3406 4097 3770 
Q 3463 4134 3206 4531 
Q 2972 4163 2323 3786 
Q 1675 3409 972 3309 
L 697 3688 
Q 1650 3769 2309 4237 
Q 2969 4706 2969 5153 
L 2969 5356 
L 3431 5356 
L 3431 5153 
Q 3431 4697 4090 4226 
Q 4750 3756 5703 3681 
L 5459 3303 
z
M 403 2328 
L 403 2747 
L 5997 2747 
L 5997 2328 
L 403 2328 
z
M 1325 -397 
L 1325 1850 
L 1784 1850 
L 1784 1100 
L 4609 1100 
L 4609 1850 
L 5069 1850 
L 5069 -397 
L 1325 -397 
z
M 4609 691 
L 1784 691 
L 1784 13 
L 4609 13 
L 4609 691 
z
" transform="scale(0.015625)"/>
      <path id="MalgunGothic-1d" d="M 356 3006 
Q 356 3153 459 3254 
Q 563 3356 700 3356 
Q 838 3356 941 3254 
Q 1044 3153 1044 3006 
Q 1044 2863 942 2761 
Q 841 2659 700 2659 
Q 559 2659 457 2761 
Q 356 2863 356 3006 
z
M 356 275 
Q 356 422 459 523 
Q 563 625 700 625 
Q 838 625 941 523 
Q 1044 422 1044 275 
Q 1044 138 942 33 
Q 841 -72 700 -72 
Q 559 -72 457 29 
Q 356 131 356 275 
z
" transform="scale(0.015625)"/>
      <path id="MalgunGothic-642" d="M 403 1759 
L 403 2181 
L 2963 2181 
L 2963 2956 
L 1356 2956 
L 1356 5288 
L 1819 5288 
L 1819 4519 
L 4581 4519 
L 4581 5288 
L 5044 5288 
L 5044 2956 
L 3438 2956 
L 3438 2181 
L 5997 2181 
L 5997 1759 
L 403 1759 
z
M 4581 4103 
L 1819 4103 
L 1819 3366 
L 4581 3366 
L 4581 4103 
z
M 1319 -359 
L 1319 1375 
L 1784 1375 
L 1784 56 
L 5203 56 
L 5203 -359 
L 1319 -359 
z
" transform="scale(0.015625)"/>
      <path id="MalgunGothic-2d5" d="M 6188 2663 
L 5203 2663 
L 5203 -563 
L 4728 -563 
L 4728 5466 
L 5197 5466 
L 5197 3078 
L 6188 3078 
L 6188 2663 
z
M 3828 4897 
Q 3828 3144 3713 1800 
L 3256 1831 
Q 3294 2163 3326 3077 
Q 3359 3991 3359 4481 
L 800 4481 
L 800 4897 
L 3828 4897 
z
M 4319 666 
Q 2688 575 281 575 
L 238 984 
Q 559 984 1747 1000 
L 1747 3084 
L 2216 3084 
L 2216 1006 
L 4288 1069 
L 4319 666 
z
" transform="scale(0.015625)"/>
      <path id="MalgunGothic-882" d="M 5013 -563 
L 5013 5466 
L 5478 5466 
L 5478 -563 
L 5013 -563 
z
M 2450 2131 
Q 1775 2131 1315 2540 
Q 856 2950 856 3572 
Q 856 4181 1312 4593 
Q 1769 5006 2450 5006 
Q 3128 5006 3586 4590 
Q 4044 4175 4044 3572 
Q 4044 2947 3587 2539 
Q 3131 2131 2450 2131 
z
M 2450 4594 
Q 1975 4594 1656 4306 
Q 1338 4019 1338 3572 
Q 1338 3119 1664 2833 
Q 1991 2547 2450 2547 
Q 2922 2547 3244 2833 
Q 3566 3119 3566 3572 
Q 3566 4025 3247 4309 
Q 2928 4594 2450 4594 
z
M 459 531 
L 416 934 
Q 1222 934 2667 965 
Q 4113 997 4588 1038 
L 4616 634 
Q 4125 594 2679 562 
Q 1234 531 459 531 
z
" transform="scale(0.015625)"/>
      <path id="MalgunGothic-81d" d="M 403 391 
L 403 800 
L 2963 800 
L 2963 2016 
Q 2103 2081 1634 2479 
Q 1166 2878 1166 3525 
Q 1166 4228 1727 4629 
Q 2288 5031 3200 5031 
Q 4113 5031 4670 4632 
Q 5228 4234 5228 3525 
Q 5228 2878 4759 2479 
Q 4291 2081 3438 2016 
L 3438 800 
L 5997 800 
L 5997 391 
L 403 391 
z
M 1650 3525 
Q 1650 3016 2079 2720 
Q 2509 2425 3200 2425 
Q 3891 2425 4317 2722 
Q 4744 3019 4744 3525 
Q 4744 4028 4317 4325 
Q 3891 4622 3200 4622 
Q 2506 4622 2078 4325 
Q 1650 4028 1650 3525 
z
" transform="scale(0.015625)"/>
      <path id="MalgunGothic-96e" d="M 3803 972 
Q 3288 1272 2848 1772 
Q 2409 2272 2266 2663 
Q 2144 2278 1692 1715 
Q 1241 1153 775 850 
L 428 1197 
Q 1084 1513 1559 2223 
Q 2034 2934 2034 3597 
L 2034 4206 
L 563 4206 
L 563 4622 
L 2028 4622 
L 2028 5466 
L 2491 5466 
L 2491 4622 
L 3956 4622 
L 3956 4206 
L 2491 4206 
L 2491 3578 
Q 2491 2938 2966 2281 
Q 3441 1625 4122 1338 
L 3803 972 
z
M 5094 2497 
L 5094 -563 
L 4628 -563 
L 4628 5466 
L 5094 5466 
L 5094 2919 
L 6081 2919 
L 6081 2497 
L 5094 2497 
z
" transform="scale(0.015625)"/>
      <path id="MalgunGothic-53b" d="M 1247 3641 
L 4659 3641 
L 4659 4531 
L 1259 4531 
L 1259 4941 
L 5125 4941 
L 5125 3238 
L 1722 3238 
L 1722 2241 
L 5300 2241 
L 5300 1825 
L 3438 1825 
L 3438 728 
L 5997 728 
L 5997 313 
L 403 313 
L 403 728 
L 2969 728 
L 2969 1825 
L 1247 1825 
L 1247 3641 
z
" transform="scale(0.015625)"/>
      <path id="MalgunGothic-47f" d="M 1306 2969 
L 1306 5247 
L 5094 5247 
L 5094 4831 
L 1772 4831 
L 1772 3384 
L 5191 3384 
L 5191 2969 
L 1306 2969 
z
M 3438 1716 
L 3438 -556 
L 2963 -556 
L 2963 1716 
L 403 1716 
L 403 2131 
L 5997 2131 
L 5997 1716 
L 3438 1716 
z
" transform="scale(0.015625)"/>
      <path id="MalgunGothic-766" d="M 4878 1178 
L 4878 5466 
L 5344 5466 
L 5344 1178 
L 4878 1178 
z
M 3675 2069 
Q 3228 2344 2829 2776 
Q 2431 3209 2266 3566 
Q 2091 3150 1662 2648 
Q 1234 2147 819 1913 
L 481 2234 
Q 1125 2559 1573 3198 
Q 2022 3838 2022 4494 
L 2022 5269 
L 2478 5269 
L 2478 4494 
Q 2478 3894 2943 3286 
Q 3409 2678 3988 2406 
L 3675 2069 
z
M 1631 -366 
L 1631 1550 
L 2100 1550 
L 2100 44 
L 5503 44 
L 5503 -366 
L 1631 -366 
z
" transform="scale(0.015625)"/>
      <path id="MalgunGothic-2c1" d="M 4947 1934 
L 4947 2688 
L 3681 2688 
L 3681 3109 
L 4947 3109 
L 4947 3963 
L 3744 3963 
L 3744 4384 
L 4947 4384 
L 4947 5466 
L 5416 5466 
L 5416 1934 
L 4947 1934 
z
M 3609 5147 
Q 3547 4019 2742 3156 
Q 1938 2294 872 1881 
L 544 2253 
Q 1459 2544 2181 3217 
Q 2903 3891 3066 4728 
L 941 4728 
L 941 5147 
L 3609 5147 
z
M 3481 -481 
Q 2538 -481 2020 -143 
Q 1503 194 1503 716 
Q 1503 1238 2020 1569 
Q 2538 1900 3481 1900 
Q 4428 1900 4947 1569 
Q 5466 1238 5466 716 
Q 5466 194 4948 -143 
Q 4431 -481 3481 -481 
z
M 3481 1497 
Q 2775 1497 2386 1275 
Q 1997 1053 1997 716 
Q 1997 375 2381 148 
Q 2766 -78 3481 -78 
Q 4194 -78 4580 147 
Q 4966 372 4966 716 
Q 4966 1056 4575 1276 
Q 4184 1497 3481 1497 
z
" transform="scale(0.015625)"/>
      <path id="MalgunGothic-58c" d="M 5125 3378 
L 5125 1991 
L 4659 1991 
L 4659 5466 
L 5125 5466 
L 5125 3794 
L 6034 3794 
L 6034 3378 
L 5125 3378 
z
M 763 2363 
L 763 5134 
L 3494 5134 
L 3494 2363 
L 763 2363 
z
M 3034 4722 
L 1222 4722 
L 1222 2778 
L 3034 2778 
L 3034 4722 
z
M 3284 -475 
Q 2341 -475 1827 -148 
Q 1313 178 1313 697 
Q 1313 1216 1825 1539 
Q 2338 1863 3284 1863 
Q 4234 1863 4743 1539 
Q 5253 1216 5253 697 
Q 5253 178 4742 -148 
Q 4231 -475 3284 -475 
z
M 3284 1466 
Q 2569 1466 2191 1248 
Q 1813 1031 1813 697 
Q 1813 359 2192 143 
Q 2572 -72 3284 -72 
Q 3994 -72 4375 142 
Q 4756 356 4756 697 
Q 4756 1034 4378 1250 
Q 4000 1466 3284 1466 
z
" transform="scale(0.015625)"/>
      <path id="MalgunGothic-876" d="M 3200 3316 
Q 2269 3316 1769 3605 
Q 1269 3894 1269 4378 
Q 1269 4859 1770 5150 
Q 2272 5441 3200 5441 
Q 4138 5441 4634 5155 
Q 5131 4869 5131 4378 
Q 5131 3891 4632 3603 
Q 4134 3316 3200 3316 
z
M 3200 5069 
Q 2503 5069 2128 4878 
Q 1753 4688 1753 4378 
Q 1753 4063 2131 3872 
Q 2509 3681 3200 3681 
Q 3884 3681 4265 3875 
Q 4647 4069 4647 4378 
Q 4647 4681 4267 4875 
Q 3888 5069 3200 5069 
z
M 403 2419 
L 403 2803 
L 5997 2803 
L 5997 2419 
L 403 2419 
z
M 1306 -500 
L 1306 878 
L 4628 878 
L 4628 1466 
L 1306 1466 
L 1306 1856 
L 5088 1856 
L 5088 513 
L 1766 513 
L 1766 -109 
L 5247 -109 
L 5247 -500 
L 1306 -500 
z
" transform="scale(0.015625)"/>
      <path id="MalgunGothic-b21" d="M 447 4306 
L 447 4716 
L 1997 4716 
L 1997 5497 
L 2463 5497 
L 2463 4716 
L 4013 4716 
L 4013 4306 
L 447 4306 
z
M 5125 3150 
L 5125 1869 
L 4659 1869 
L 4659 5466 
L 5125 5466 
L 5125 3572 
L 6034 3572 
L 6034 3150 
L 5125 3150 
z
M 2241 1966 
Q 1544 1966 1150 2252 
Q 756 2538 756 2994 
Q 756 3453 1154 3742 
Q 1553 4031 2247 4031 
Q 2941 4031 3339 3742 
Q 3738 3453 3738 2994 
Q 3738 2544 3339 2255 
Q 2941 1966 2241 1966 
z
M 2247 3634 
Q 1763 3634 1489 3456 
Q 1216 3278 1216 2994 
Q 1216 2713 1487 2538 
Q 1759 2363 2247 2363 
Q 2734 2363 3006 2538 
Q 3278 2713 3278 2994 
Q 3278 3278 3004 3456 
Q 2731 3634 2247 3634 
z
M 1428 -453 
L 1428 1538 
L 5125 1538 
L 5125 -453 
L 1428 -453 
z
M 4666 1125 
L 1888 1125 
L 1888 -38 
L 4666 -38 
L 4666 1125 
z
" transform="scale(0.015625)"/>
      <path id="MalgunGothic-349" d="M 5159 -563 
L 5159 5466 
L 5619 5466 
L 5619 -563 
L 5159 -563 
z
M 3378 4691 
Q 3378 3903 3278 3263 
L 4072 3263 
L 4072 5344 
L 4525 5344 
L 4525 -466 
L 4072 -466 
L 4072 2847 
L 3200 2847 
Q 2922 1572 2131 628 
L 1728 903 
Q 2309 1484 2620 2426 
Q 2931 3369 2931 4519 
L 2131 4519 
L 2131 4928 
L 3378 4928 
L 3378 4691 
z
M 1959 4738 
Q 1959 2597 691 1203 
L 294 1466 
Q 878 2031 1193 2837 
Q 1509 3644 1509 4519 
L 678 4519 
L 678 4928 
L 1959 4928 
L 1959 4738 
z
" transform="scale(0.015625)"/>
      <path id="MalgunGothic-296" d="M 5056 1947 
L 5056 3359 
L 4353 3359 
L 4353 2113 
L 3891 2113 
L 3891 5344 
L 4353 5344 
L 4353 3775 
L 5056 3775 
L 5056 5466 
L 5522 5466 
L 5522 1947 
L 5056 1947 
z
M 3225 5100 
Q 3216 4072 2680 3295 
Q 2144 2519 903 1913 
L 550 2266 
Q 1500 2638 2081 3281 
Q 2663 3925 2741 4691 
L 813 4691 
L 813 5100 
L 3225 5100 
z
M 3609 -481 
Q 2644 -481 2119 -161 
Q 1594 159 1594 666 
Q 1594 1172 2123 1489 
Q 2653 1806 3609 1806 
Q 4563 1806 5091 1489 
Q 5619 1172 5619 666 
Q 5619 159 5094 -161 
Q 4569 -481 3609 -481 
z
M 3609 1409 
Q 2881 1409 2487 1201 
Q 2094 994 2094 666 
Q 2094 331 2491 123 
Q 2888 -84 3609 -84 
Q 4328 -84 4726 123 
Q 5125 331 5125 666 
Q 5125 994 4731 1201 
Q 4338 1409 3609 1409 
z
" transform="scale(0.015625)"/>
      <path id="MalgunGothic-5f" d="M 997 -1547 
L 544 -1547 
L 544 5019 
L 997 5019 
L 997 -1547 
z
" transform="scale(0.015625)"/>
      <path id="MalgunGothic-740" d="M 5459 3303 
Q 4728 3409 4090 3762 
Q 3453 4116 3206 4500 
Q 2975 4138 2323 3772 
Q 1672 3406 972 3309 
L 697 3688 
Q 1656 3772 2312 4225 
Q 2969 4678 2969 5119 
L 2969 5356 
L 3431 5356 
L 3431 5119 
Q 3431 4669 4087 4211 
Q 4744 3753 5703 3681 
L 5459 3303 
z
M 3438 2350 
L 3438 1728 
L 2963 1728 
L 2963 2350 
L 403 2350 
L 403 2759 
L 5997 2759 
L 5997 2350 
L 3438 2350 
z
M 5313 -428 
Q 4741 -344 4100 12 
Q 3459 369 3194 744 
Q 2991 378 2344 17 
Q 1697 -344 1113 -428 
L 819 -50 
Q 1709 31 2343 456 
Q 2978 881 2969 1403 
L 2963 1509 
L 3431 1509 
L 3431 1403 
Q 3431 897 4075 459 
Q 4719 22 5563 -56 
L 5313 -428 
z
" transform="scale(0.015625)"/>
      <path id="MalgunGothic-895" d="M 5094 2600 
L 5094 -563 
L 4628 -563 
L 4628 5466 
L 5094 5466 
L 5094 3016 
L 6138 3016 
L 6138 2600 
L 5094 2600 
z
M 3675 909 
Q 3228 1250 2808 1812 
Q 2388 2375 2247 2822 
Q 2125 2394 1712 1809 
Q 1300 1225 800 825 
L 441 1134 
Q 1100 1569 1551 2364 
Q 2003 3159 2003 3891 
L 2003 4525 
L 666 4525 
L 666 4941 
L 3775 4941 
L 3775 4525 
L 2463 4525 
L 2463 3922 
Q 2463 3188 2916 2434 
Q 3369 1681 4000 1259 
L 3675 909 
z
" transform="scale(0.015625)"/>
      <path id="MalgunGothic-502" d="M 5094 2503 
L 5094 -563 
L 4628 -563 
L 4628 5466 
L 5094 5466 
L 5094 2925 
L 6138 2925 
L 6138 2503 
L 5094 2503 
z
M 806 794 
L 806 3169 
L 3003 3169 
L 3003 4506 
L 806 4506 
L 806 4922 
L 3469 4922 
L 3469 2759 
L 1275 2759 
L 1275 1203 
Q 3419 1203 4063 1338 
L 4128 928 
Q 3284 794 806 794 
z
" transform="scale(0.015625)"/>
      <path id="MalgunGothic-62e" d="M 5056 2338 
L 5056 5466 
L 5522 5466 
L 5522 2338 
L 5056 2338 
z
M 763 2663 
L 763 5288 
L 1222 5288 
L 1222 4313 
L 2784 4313 
L 2784 5288 
L 3244 5288 
L 3244 4084 
L 4013 4084 
L 4013 5344 
L 4475 5344 
L 4475 2328 
L 4013 2328 
L 4013 3659 
L 3244 3659 
L 3244 2663 
L 763 2663 
z
M 2784 3903 
L 1222 3903 
L 1222 3072 
L 2784 3072 
L 2784 3903 
z
M 1747 -422 
L 1747 1025 
L 5063 1025 
L 5063 1588 
L 1747 1588 
L 1747 1997 
L 5522 1997 
L 5522 616 
L 2209 616 
L 2209 -6 
L 5684 -6 
L 5684 -422 
L 1747 -422 
z
" transform="scale(0.015625)"/>
      <path id="MalgunGothic-875" d="M 3200 2950 
Q 2309 2950 1817 3287 
Q 1325 3625 1325 4159 
Q 1325 4694 1815 5028 
Q 2306 5363 3200 5363 
Q 4094 5363 4587 5028 
Q 5081 4694 5081 4159 
Q 5081 3625 4584 3287 
Q 4088 2950 3200 2950 
z
M 3200 4966 
Q 2541 4966 2177 4747 
Q 1813 4528 1813 4159 
Q 1813 3791 2177 3572 
Q 2541 3353 3200 3353 
Q 3859 3353 4223 3572 
Q 4588 3791 4588 4159 
Q 4588 4528 4223 4747 
Q 3859 4966 3200 4966 
z
M 403 1919 
L 403 2344 
L 5997 2344 
L 5997 1919 
L 403 1919 
z
M 1338 -359 
L 1338 1331 
L 1813 1331 
L 1813 56 
L 5203 56 
L 5203 -359 
L 1338 -359 
z
" transform="scale(0.015625)"/>
      <path id="MalgunGothic-718" d="M 5459 3059 
Q 4756 3163 4125 3533 
Q 3494 3903 3206 4334 
Q 2956 3944 2307 3553 
Q 1659 3163 972 3066 
L 697 3444 
Q 1628 3525 2298 4020 
Q 2969 4516 2969 4966 
L 2969 5203 
L 3431 5203 
L 3431 4959 
Q 3431 4506 4095 4007 
Q 4759 3509 5703 3438 
L 5459 3059 
z
M 403 1753 
L 403 2169 
L 2963 2169 
L 2963 3263 
L 3438 3263 
L 3438 2169 
L 5997 2169 
L 5997 1753 
L 403 1753 
z
M 1325 -378 
L 1325 1344 
L 1791 1344 
L 1791 38 
L 5203 38 
L 5203 -378 
L 1325 -378 
z
" transform="scale(0.015625)"/>
      <path id="MalgunGothic-768" d="M 4878 2450 
L 4878 5466 
L 5344 5466 
L 5344 2450 
L 4878 2450 
z
M 3653 2663 
Q 3266 2828 2845 3203 
Q 2425 3578 2241 3938 
Q 1884 3125 800 2509 
L 469 2822 
Q 1178 3159 1590 3681 
Q 2003 4203 2003 4813 
L 2003 5331 
L 2456 5331 
L 2456 4813 
Q 2456 4219 2907 3717 
Q 3359 3216 3969 3003 
L 3653 2663 
z
M 1631 -422 
L 1631 1069 
L 4884 1069 
L 4884 1716 
L 1631 1716 
L 1631 2131 
L 5344 2131 
L 5344 666 
L 2094 666 
L 2094 -6 
L 5509 -6 
L 5509 -422 
L 1631 -422 
z
" transform="scale(0.015625)"/>
      <path id="MalgunGothic-7fe" d="M 5081 -563 
L 5081 5466 
L 5550 5466 
L 5550 -563 
L 5081 -563 
z
M 3278 2822 
Q 3244 1931 2903 1448 
Q 2563 966 1959 966 
Q 1325 966 983 1495 
Q 641 2025 641 3016 
Q 641 4006 986 4534 
Q 1331 5063 1959 5063 
Q 2559 5063 2898 4591 
Q 3238 4119 3272 3238 
L 4000 3238 
L 4000 5344 
L 4469 5344 
L 4469 -378 
L 4000 -378 
L 4000 2822 
L 3278 2822 
z
M 1959 4641 
Q 1538 4641 1316 4225 
Q 1094 3809 1094 3016 
Q 1094 2222 1316 1805 
Q 1538 1388 1959 1388 
Q 2378 1388 2600 1806 
Q 2822 2225 2822 3016 
Q 2822 3806 2600 4223 
Q 2378 4641 1959 4641 
z
" transform="scale(0.015625)"/>
      <path id="MalgunGothic-49a" d="M 1344 3506 
L 1344 5331 
L 5081 5331 
L 5081 4934 
L 1806 4934 
L 1806 3903 
L 5153 3903 
L 5153 3506 
L 1344 3506 
z
M 403 2484 
L 403 2881 
L 5997 2881 
L 5997 2484 
L 403 2484 
z
M 1313 -488 
L 1313 878 
L 4616 878 
L 4616 1472 
L 1313 1472 
L 1313 1869 
L 5075 1869 
L 5075 506 
L 1772 506 
L 1772 -91 
L 5234 -91 
L 5234 -488 
L 1313 -488 
z
" transform="scale(0.015625)"/>
      <path id="MalgunGothic-7ed" d="M 3781 2822 
Q 3731 1925 3314 1445 
Q 2897 966 2259 966 
Q 1572 966 1150 1514 
Q 728 2063 728 3016 
Q 728 3978 1145 4520 
Q 1563 5063 2259 5063 
Q 2900 5063 3312 4583 
Q 3725 4103 3775 3238 
L 4891 3238 
L 4891 5466 
L 5356 5466 
L 5356 -563 
L 4891 -563 
L 4891 2822 
L 3781 2822 
z
M 2259 4647 
Q 1775 4647 1483 4206 
Q 1191 3766 1191 3016 
Q 1191 2269 1487 1825 
Q 1784 1381 2259 1381 
Q 2728 1381 3028 1831 
Q 3328 2281 3328 3016 
Q 3328 3766 3034 4206 
Q 2741 4647 2259 4647 
z
" transform="scale(0.015625)"/>
      <path id="MalgunGothic-27c" d="M 5094 2566 
L 5094 -563 
L 4628 -563 
L 4628 5466 
L 5094 5466 
L 5094 2981 
L 6175 2981 
L 6175 2566 
L 5094 2566 
z
M 3609 4928 
Q 3541 2363 897 863 
L 538 1241 
Q 1484 1631 2234 2506 
Q 2984 3381 3109 4513 
L 794 4513 
L 794 4928 
L 3609 4928 
z
" transform="scale(0.015625)"/>
      <path id="MalgunGothic-90f" d="M 4884 -563 
L 4884 5466 
L 5350 5466 
L 5350 -563 
L 4884 -563 
z
M 3775 909 
Q 3228 1338 2822 1881 
Q 2416 2425 2297 2859 
Q 2178 2397 1756 1814 
Q 1334 1231 825 825 
L 475 1147 
Q 1191 1638 1625 2425 
Q 2059 3213 2059 4019 
L 2059 4525 
L 716 4525 
L 716 4941 
L 3884 4941 
L 3884 4525 
L 2528 4525 
L 2528 4038 
Q 2528 3238 2968 2459 
Q 3409 1681 4097 1269 
L 3775 909 
z
" transform="scale(0.015625)"/>
      <path id="MalgunGothic-7c9" d="M 5131 3769 
L 5131 2553 
L 4666 2553 
L 4666 5466 
L 5131 5466 
L 5131 4184 
L 6041 4184 
L 6041 3769 
L 5131 3769 
z
M 2156 2566 
Q 1475 2566 1051 2964 
Q 628 3363 628 3969 
Q 628 4575 1053 4972 
Q 1478 5369 2156 5369 
Q 2831 5369 3259 4972 
Q 3688 4575 3688 3969 
Q 3688 3366 3259 2966 
Q 2831 2566 2156 2566 
z
M 2156 4966 
Q 1675 4966 1384 4691 
Q 1094 4416 1094 3969 
Q 1094 3516 1384 3242 
Q 1675 2969 2156 2969 
Q 2638 2969 2928 3242 
Q 3219 3516 3219 3969 
Q 3219 4416 2928 4691 
Q 2638 4966 2156 4966 
z
M 2650 1453 
L 2650 1863 
L 3903 1863 
L 3903 2497 
L 4372 2497 
L 4372 1863 
L 5631 1863 
L 5631 1453 
L 2650 1453 
z
M 2828 -281 
Q 2150 -347 1088 -347 
L 1088 2016 
L 1550 2016 
L 1550 56 
Q 2250 56 2809 116 
L 2828 -281 
z
M 4141 -453 
Q 3575 -453 3250 -226 
Q 2925 0 2925 378 
Q 2925 753 3253 981 
Q 3581 1209 4141 1209 
Q 4700 1209 5028 981 
Q 5356 753 5356 378 
Q 5356 0 5031 -226 
Q 4706 -453 4141 -453 
z
M 4141 831 
Q 3778 831 3575 703 
Q 3372 575 3372 378 
Q 3372 178 3573 47 
Q 3775 -84 4141 -84 
Q 4506 -84 4707 48 
Q 4909 181 4909 378 
Q 4909 569 4706 700 
Q 4503 831 4141 831 
z
" transform="scale(0.015625)"/>
      <path id="MalgunGothic-878" d="M 3200 3103 
Q 2291 3103 1798 3426 
Q 1306 3750 1306 4269 
Q 1306 4788 1798 5111 
Q 2291 5434 3200 5434 
Q 4109 5434 4601 5111 
Q 5094 4788 5094 4269 
Q 5094 3750 4601 3426 
Q 4109 3103 3200 3103 
z
M 3200 5038 
Q 2525 5038 2161 4831 
Q 1797 4625 1797 4269 
Q 1797 3913 2161 3706 
Q 2525 3500 3200 3500 
Q 3875 3500 4239 3706 
Q 4603 3913 4603 4269 
Q 4603 4625 4239 4831 
Q 3875 5038 3200 5038 
z
M 403 2175 
L 403 2591 
L 5997 2591 
L 5997 2175 
L 403 2175 
z
M 1325 -384 
L 1325 1625 
L 5075 1625 
L 5075 -384 
L 1325 -384 
z
M 4609 1209 
L 1791 1209 
L 1791 31 
L 4609 31 
L 4609 1209 
z
" transform="scale(0.015625)"/>
     </defs>
     <use xlink:href="#MalgunGothic-b1d"/>
     <use xlink:href="#MalgunGothic-761" transform="translate(100 0)"/>
     <use xlink:href="#MalgunGothic-1d" transform="translate(200 0)"/>
     <use xlink:href="#MalgunGothic-3" transform="translate(221.875 0)"/>
     <use xlink:href="#MalgunGothic-855" transform="translate(257.03125 0)"/>
     <use xlink:href="#MalgunGothic-642" transform="translate(357.03125 0)"/>
     <use xlink:href="#MalgunGothic-2d5" transform="translate(457.03125 0)"/>
     <use xlink:href="#MalgunGothic-3" transform="translate(557.03125 0)"/>
     <use xlink:href="#MalgunGothic-640" transform="translate(592.1875 0)"/>
     <use xlink:href="#MalgunGothic-855" transform="translate(692.1875 0)"/>
     <use xlink:href="#MalgunGothic-882" transform="translate(792.1875 0)"/>
     <use xlink:href="#MalgunGothic-3" transform="translate(892.1875 0)"/>
     <use xlink:href="#MalgunGothic-81d" transform="translate(927.34375 0)"/>
     <use xlink:href="#MalgunGothic-96e" transform="translate(1027.34375 0)"/>
     <use xlink:href="#MalgunGothic-53b" transform="translate(1127.34375 0)"/>
     <use xlink:href="#MalgunGothic-3" transform="translate(1227.34375 0)"/>
     <use xlink:href="#MalgunGothic-47f" transform="translate(1262.5 0)"/>
     <use xlink:href="#MalgunGothic-3" transform="translate(1362.5 0)"/>
     <use xlink:href="#MalgunGothic-766" transform="translate(1397.65625 0)"/>
     <use xlink:href="#MalgunGothic-2c1" transform="translate(1497.65625 0)"/>
     <use xlink:href="#MalgunGothic-58c" transform="translate(1597.65625 0)"/>
     <use xlink:href="#MalgunGothic-876" transform="translate(1697.65625 0)"/>
     <use xlink:href="#MalgunGothic-3" transform="translate(1797.65625 0)"/>
     <use xlink:href="#MalgunGothic-b21" transform="translate(1832.8125 0)"/>
     <use xlink:href="#MalgunGothic-349" transform="translate(1932.8125 0)"/>
     <use xlink:href="#MalgunGothic-3" transform="translate(2032.8125 0)"/>
     <use xlink:href="#MalgunGothic-296" transform="translate(2067.96875 0)"/>
     <use xlink:href="#MalgunGothic-766" transform="translate(2167.96875 0)"/>
     <use xlink:href="#MalgunGothic-3" transform="translate(2267.96875 0)"/>
     <use xlink:href="#MalgunGothic-3" transform="translate(2303.125 0)"/>
     <use xlink:href="#MalgunGothic-5f" transform="translate(2338.28125 0)"/>
     <use xlink:href="#MalgunGothic-3" transform="translate(2362.203125 0)"/>
     <use xlink:href="#MalgunGothic-3" transform="translate(2397.359375 0)"/>
     <use xlink:href="#MalgunGothic-740" transform="translate(2432.515625 0)"/>
     <use xlink:href="#MalgunGothic-895" transform="translate(2532.515625 0)"/>
     <use xlink:href="#MalgunGothic-3" transform="translate(2632.515625 0)"/>
     <use xlink:href="#MalgunGothic-502" transform="translate(2667.671875 0)"/>
     <use xlink:href="#MalgunGothic-62e" transform="translate(2767.671875 0)"/>
     <use xlink:href="#MalgunGothic-875" transform="translate(2867.671875 0)"/>
     <use xlink:href="#MalgunGothic-3" transform="translate(2967.671875 0)"/>
     <use xlink:href="#MalgunGothic-718" transform="translate(3002.828125 0)"/>
     <use xlink:href="#MalgunGothic-768" transform="translate(3102.828125 0)"/>
     <use xlink:href="#MalgunGothic-7fe" transform="translate(3202.828125 0)"/>
     <use xlink:href="#MalgunGothic-3" transform="translate(3302.828125 0)"/>
     <use xlink:href="#MalgunGothic-49a" transform="translate(3337.984375 0)"/>
     <use xlink:href="#MalgunGothic-7ed" transform="translate(3437.984375 0)"/>
     <use xlink:href="#MalgunGothic-27c" transform="translate(3537.984375 0)"/>
     <use xlink:href="#MalgunGothic-90f" transform="translate(3637.984375 0)"/>
     <use xlink:href="#MalgunGothic-3" transform="translate(3737.984375 0)"/>
     <use xlink:href="#MalgunGothic-7c9" transform="translate(3773.140625 0)"/>
     <use xlink:href="#MalgunGothic-878" transform="translate(3873.140625 0)"/>
    </g>
   </g>
  </g>
 </g>
 <defs>
  <clipPath id="pc031ee72fb">
   <rect x="7.2" y="7.2" width="669.6" height="171.864"/>
  </clipPath>
 </defs>
</svg>
