<?xml version="1.0" encoding="utf-8" standalone="no"?>
<!DOCTYPE svg PUBLIC "-//W3C//DTD SVG 1.1//EN"
  "http://www.w3.org/Graphics/SVG/1.1/DTD/svg11.dtd">
<svg xmlns:xlink="http://www.w3.org/1999/xlink" width="684pt" height="186.264pt" viewBox="0 0 684 186.264" xmlns="http://www.w3.org/2000/svg" version="1.1">
 <metadata>
  <rdf:RDF xmlns:dc="http://purl.org/dc/elements/1.1/" xmlns:cc="http://creativecommons.org/ns#" xmlns:rdf="http://www.w3.org/1999/02/22-rdf-syntax-ns#">
   <cc:Work>
    <dc:type rdf:resource="http://purl.org/dc/dcmitype/StillImage"/>
    <dc:date>2026-09-20T19:31:20.628695</dc:date>
    <dc:format>image/svg+xml</dc:format>
    <dc:creator>
     <cc:Agent>
      <dc:title>Matplotlib v3.11.1, https://matplotlib.org/</dc:title>
     </cc:Agent>
    </dc:creator>
   </cc:Work>
  </rdf:RDF>
 </metadata>
 <defs>
  <style type="text/css">*{stroke-linejoin: round; stroke-linecap: butt}</style>
 </defs>
 <g id="figure_1">
  <g id="patch_1">
   <path d="M 0 186.264 
L 684 186.264 
L 684 0 
L 0 0 
z
" style="fill: #ffffff"/>
  </g>
  <g id="axes_1">
   <g id="patch_2">
    <path d="M 11.634437 123.49464 
L 132.472848 123.49464 
Q 134.135762 123.49464 134.135762 121.776 
L 134.135762 64.488 
Q 134.135762 62.76936 132.472848 62.76936 
L 11.634437 62.76936 
Q 9.971523 62.76936 9.971523 64.488 
L 9.971523 121.776 
Q 9.971523 123.49464 11.634437 123.49464 
z
" clip-path="url(#pecfa53f50a)" style="fill: #dbeafe; stroke: #627b8d; stroke-linejoin: miter"/>
   </g>
   <g id="patch_3">
    <path d="M 144.66755 123.49464 
L 265.50596 123.49464 
Q 267.168874 123.49464 267.168874 121.776 
L 267.168874 64.488 
Q 267.168874 62.76936 265.50596 62.76936 
L 144.66755 62.76936 
Q 143.004636 62.76936 143.004636 64.488 
L 143.004636 121.776 
Q 143.004636 123.49464 144.66755 123.49464 
z
" clip-path="url(#pecfa53f50a)" style="fill: #cffafe; stroke: #627b8d; stroke-linejoin: miter"/>
   </g>
   <g id="patch_4">
    <path d="M 277.700662 123.49464 
L 398.539073 123.49464 
Q 400.201987 123.49464 400.201987 121.776 
L 400.201987 64.488 
Q 400.201987 62.76936 398.539073 62.76936 
L 277.700662 62.76936 
Q 276.037748 62.76936 276.037748 64.488 
L 276.037748 121.776 
Q 276.037748 123.49464 277.700662 123.49464 
z
" clip-path="url(#pecfa53f50a)" style="fill: #fef3c7; stroke: #627b8d; stroke-linejoin: miter"/>
   </g>
   <g id="patch_5">
    <path d="M 410.733775 123.49464 
L 531.572185 123.49464 
Q 533.235099 123.49464 533.235099 121.776 
L 533.235099 64.488 
Q 533.235099 62.76936 531.572185 62.76936 
L 410.733775 62.76936 
Q 409.070861 62.76936 409.070861 64.488 
L 409.070861 121.776 
Q 409.070861 123.49464 410.733775 123.49464 
z
" clip-path="url(#pecfa53f50a)" style="fill: #dcfce7; stroke: #627b8d; stroke-linejoin: miter"/>
   </g>
   <g id="patch_6">
    <path d="M 543.766887 123.49464 
L 664.605298 123.49464 
Q 666.268212 123.49464 666.268212 121.776 
L 666.268212 64.488 
Q 666.268212 62.76936 664.605298 62.76936 
L 543.766887 62.76936 
Q 542.103974 62.76936 542.103974 64.488 
L 542.103974 121.776 
Q 542.103974 123.49464 543.766887 123.49464 
z
" clip-path="url(#pecfa53f50a)" style="fill: #ede9fe; stroke: #627b8d; stroke-linejoin: miter"/>
   </g>
   <g id="text_1">
    <!-- CPU 실습 인코더: 공간은 줄고, 특징 채널은 늘어난다 -->
    <g style="fill: #123047" transform="translate(11.634437 27.2508) scale(0.19 -0.19)">
     <defs>
      <path id="MalgunGothicBold-25" d="M 3794 172 
Q 3294 -81 2494 -81 
Q 1472 -81 864 542 
Q 256 1166 256 2203 
Q 256 3291 934 3983 
Q 1613 4675 2675 4675 
Q 3344 4675 3794 4497 
L 3794 3628 
Q 3325 3900 2731 3900 
Q 2034 3900 1614 3447 
Q 1194 2994 1194 2266 
Q 1194 1550 1594 1122 
Q 1994 694 2659 694 
Q 3288 694 3794 994 
L 3794 172 
z
" transform="scale(0.015625)"/>
      <path id="MalgunGothicBold-32" d="M 1438 1631 
L 1438 0 
L 547 0 
L 547 4600 
L 2066 4600 
Q 3747 4600 3747 3159 
Q 3747 2463 3239 2038 
Q 2731 1613 1963 1631 
L 1438 1631 
z
M 1438 3891 
L 1438 2328 
L 1891 2328 
Q 2813 2328 2813 3125 
Q 2813 3891 1909 3891 
L 1438 3891 
z
" transform="scale(0.015625)"/>
      <path id="MalgunGothicBold-37" d="M 4188 1953 
Q 4188 -81 2306 -81 
Q 497 -81 497 1897 
L 497 4600 
L 1391 4600 
L 1391 1897 
Q 1391 694 2353 694 
Q 3297 694 3297 1856 
L 3297 4600 
L 4188 4600 
L 4188 1953 
z
" transform="scale(0.015625)"/>
      <path id="MalgunGothicBold-3" transform="scale(0.015625)"/>
      <path id="MalgunGothicBold-765" d="M 4703 2438 
L 4703 5466 
L 5472 5466 
L 5472 2438 
L 4703 2438 
z
M 3628 2503 
Q 2684 3009 2278 3609 
Q 2100 3269 1703 2901 
Q 1306 2534 903 2344 
L 378 2900 
Q 1091 3206 1483 3698 
Q 1875 4191 1875 4769 
L 1875 5338 
L 2638 5338 
L 2638 4769 
Q 2638 4228 3055 3765 
Q 3472 3303 4097 3116 
L 3628 2503 
z
M 1575 -466 
L 1575 1178 
L 4703 1178 
L 4703 1544 
L 1575 1544 
L 1575 2203 
L 5472 2203 
L 5472 575 
L 2350 575 
L 2350 191 
L 5625 191 
L 5625 -466 
L 1575 -466 
z
" transform="scale(0.015625)"/>
      <path id="MalgunGothicBold-75e" d="M 5403 3231 
Q 4772 3319 4170 3617 
Q 3569 3916 3200 4319 
Q 2403 3441 1031 3238 
L 616 3841 
Q 1606 3906 2207 4325 
Q 2809 4744 2809 5141 
L 2809 5428 
L 3584 5428 
L 3584 5141 
Q 3584 4763 4201 4336 
Q 4819 3909 5772 3834 
L 5403 3231 
z
M 403 2181 
L 403 2841 
L 5997 2841 
L 5997 2181 
L 403 2181 
z
M 1222 -434 
L 1222 1813 
L 2003 1813 
L 2003 1281 
L 4397 1281 
L 4397 1813 
L 5178 1813 
L 5178 -434 
L 1222 -434 
z
M 4397 628 
L 2003 628 
L 2003 219 
L 4397 219 
L 4397 628 
z
" transform="scale(0.015625)"/>
      <path id="MalgunGothicBold-886" d="M 4697 1172 
L 4697 5466 
L 5466 5466 
L 5466 1172 
L 4697 1172 
z
M 2222 2034 
Q 1522 2034 1062 2482 
Q 603 2931 603 3628 
Q 603 4331 1062 4779 
Q 1522 5228 2222 5228 
Q 2922 5228 3381 4781 
Q 3841 4334 3841 3628 
Q 3841 2928 3381 2481 
Q 2922 2034 2222 2034 
z
M 2222 4569 
Q 1847 4569 1608 4309 
Q 1369 4050 1369 3628 
Q 1369 3209 1608 2951 
Q 1847 2694 2222 2694 
Q 2603 2694 2837 2951 
Q 3072 3209 3072 3628 
Q 3072 4041 2834 4305 
Q 2597 4569 2222 4569 
z
M 1575 -353 
L 1575 1638 
L 2363 1638 
L 2363 306 
L 5581 306 
L 5581 -353 
L 1575 -353 
z
" transform="scale(0.015625)"/>
      <path id="MalgunGothicBold-a0a" d="M 928 2631 
L 728 3303 
L 4459 3481 
L 4459 4281 
L 1069 4281 
L 1069 4928 
L 5253 4928 
L 5253 3731 
Q 5253 2331 5100 1409 
L 4353 1484 
Q 4434 2234 4453 2834 
L 928 2631 
z
M 403 269 
L 403 922 
L 2522 922 
L 2522 2316 
L 3309 2316 
L 3309 922 
L 5997 922 
L 5997 269 
L 403 269 
z
" transform="scale(0.015625)"/>
      <path id="MalgunGothicBold-445" d="M 4800 -563 
L 4800 2759 
L 3188 2759 
L 3188 3419 
L 4800 3419 
L 4800 5466 
L 5569 5466 
L 5569 -563 
L 4800 -563 
z
M 4038 1216 
Q 3413 1144 2855 1131 
Q 2297 1119 697 1119 
L 697 4941 
L 3713 4941 
L 3713 4281 
L 1466 4281 
L 1466 1772 
L 1778 1772 
Q 3316 1772 3994 1863 
L 4038 1216 
z
" transform="scale(0.015625)"/>
      <path id="MalgunGothicBold-1c" d="M 309 2856 
Q 309 3066 468 3198 
Q 628 3331 841 3331 
Q 1056 3331 1209 3197 
Q 1363 3063 1363 2856 
Q 1363 2641 1209 2508 
Q 1056 2375 828 2375 
Q 619 2375 464 2511 
Q 309 2647 309 2856 
z
M 309 400 
Q 309 609 467 743 
Q 625 878 841 878 
Q 1056 878 1209 743 
Q 1363 609 1363 400 
Q 1363 188 1209 55 
Q 1056 -78 828 -78 
Q 613 -78 461 59 
Q 309 197 309 400 
z
" transform="scale(0.015625)"/>
      <path id="MalgunGothicBold-2d0" d="M 5153 5331 
Q 5153 3984 5063 3181 
L 4313 3219 
Q 4353 3613 4372 4672 
L 1241 4672 
L 1241 5331 
L 5153 5331 
z
M 403 2216 
L 403 2875 
L 2497 2875 
L 2497 4038 
L 3291 4038 
L 3291 2875 
L 5997 2875 
L 5997 2216 
L 403 2216 
z
M 3213 -519 
Q 2225 -519 1683 -194 
Q 1141 131 1141 672 
Q 1141 1225 1683 1544 
Q 2225 1863 3213 1863 
Q 4206 1863 4743 1548 
Q 5281 1234 5281 672 
Q 5281 116 4737 -201 
Q 4194 -519 3213 -519 
z
M 3213 1234 
Q 2597 1234 2272 1078 
Q 1947 922 1947 672 
Q 1947 422 2272 265 
Q 2597 109 3213 109 
Q 3825 109 4147 264 
Q 4469 419 4469 672 
Q 4469 925 4147 1079 
Q 3825 1234 3213 1234 
z
" transform="scale(0.015625)"/>
      <path id="MalgunGothicBold-27b" d="M 5253 3016 
L 5253 1125 
L 4475 1125 
L 4475 5466 
L 5253 5466 
L 5253 3675 
L 6175 3675 
L 6175 3016 
L 5253 3016 
z
M 947 1753 
L 378 2369 
Q 1181 2581 1829 3164 
Q 2478 3747 2669 4416 
L 775 4416 
L 775 5075 
L 3634 5075 
Q 3341 2775 947 1753 
z
M 1484 -353 
L 1484 1638 
L 2272 1638 
L 2272 306 
L 5422 306 
L 5422 -353 
L 1484 -353 
z
" transform="scale(0.015625)"/>
      <path id="MalgunGothicBold-872" d="M 3200 2828 
Q 2244 2828 1705 3164 
Q 1166 3500 1166 4056 
Q 1166 4619 1716 4966 
Q 2266 5313 3200 5313 
Q 4134 5313 4684 4966 
Q 5234 4619 5234 4056 
Q 5234 3500 4692 3164 
Q 4150 2828 3200 2828 
z
M 3200 4672 
Q 2600 4672 2283 4505 
Q 1966 4338 1966 4056 
Q 1966 3778 2287 3623 
Q 2609 3469 3200 3469 
Q 3791 3469 4112 3623 
Q 4434 3778 4434 4056 
Q 4434 4338 4117 4505 
Q 3800 4672 3200 4672 
z
M 403 1716 
L 403 2375 
L 5997 2375 
L 5997 1716 
L 403 1716 
z
M 1222 -306 
L 1222 1381 
L 2009 1381 
L 2009 353 
L 5253 353 
L 5253 -306 
L 1222 -306 
z
" transform="scale(0.015625)"/>
      <path id="MalgunGothicBold-8ef" d="M 5381 3347 
Q 3866 3597 3200 4275 
Q 2956 3991 2337 3720 
Q 1719 3450 1050 3353 
L 609 3938 
Q 1313 3978 1902 4208 
Q 2491 4438 2700 4750 
L 1044 4750 
L 1044 5388 
L 5356 5388 
L 5356 4750 
L 3706 4750 
Q 3928 4438 4508 4202 
Q 5088 3966 5759 3938 
L 5381 3347 
z
M 1222 -459 
L 1222 1094 
L 4391 1094 
L 4391 1394 
L 1222 1394 
L 1222 2034 
L 2803 2034 
L 2803 2438 
L 403 2438 
L 403 3078 
L 5997 3078 
L 5997 2438 
L 3591 2438 
L 3591 2034 
L 5172 2034 
L 5172 488 
L 2003 488 
L 2003 178 
L 5319 178 
L 5319 -459 
L 1222 -459 
z
" transform="scale(0.015625)"/>
      <path id="MalgunGothicBold-2c5" d="M 5209 3647 
Q 5209 2613 5069 1563 
L 4294 1619 
Q 4422 2584 4422 3463 
L 4422 4269 
L 1113 4269 
L 1113 4916 
L 5209 4916 
L 5209 3647 
z
M 403 263 
L 403 922 
L 2394 922 
L 2394 2931 
L 3181 2931 
L 3181 922 
L 5997 922 
L 5997 263 
L 403 263 
z
" transform="scale(0.015625)"/>
      <path id="MalgunGothicBold-e" d="M 1278 784 
L 797 -822 
L 128 -822 
L 466 784 
L 1278 784 
z
" transform="scale(0.015625)"/>
      <path id="MalgunGothicBold-a9b" d="M 1247 2809 
L 1247 5319 
L 5166 5319 
L 5166 4684 
L 2041 4684 
L 2041 4359 
L 5050 4359 
L 5050 3769 
L 2041 3769 
L 2041 3438 
L 5228 3438 
L 5228 2809 
L 1247 2809 
z
M 403 1766 
L 403 2431 
L 5997 2431 
L 5997 1766 
L 403 1766 
z
M 4391 -563 
L 4391 703 
L 1147 703 
L 1147 1369 
L 5178 1369 
L 5178 -563 
L 4391 -563 
z
" transform="scale(0.015625)"/>
      <path id="MalgunGothicBold-915" d="M 4709 2016 
L 4709 5466 
L 5478 5466 
L 5478 2016 
L 4709 2016 
z
M 3634 2113 
Q 2741 2556 2291 3213 
Q 2138 2878 1720 2483 
Q 1303 2088 928 1906 
L 372 2456 
Q 1003 2697 1439 3222 
Q 1875 3747 1875 4300 
L 1875 4544 
L 634 4544 
L 634 5197 
L 3872 5197 
L 3872 4544 
L 2663 4544 
L 2663 4325 
Q 2663 3784 3072 3351 
Q 3481 2919 4134 2706 
L 3634 2113 
z
M 3584 -538 
Q 2653 -538 2126 -191 
Q 1600 156 1600 716 
Q 1600 1272 2128 1622 
Q 2656 1972 3584 1972 
Q 4516 1972 5045 1620 
Q 5575 1269 5575 716 
Q 5575 159 5045 -189 
Q 4516 -538 3584 -538 
z
M 3584 1325 
Q 2981 1325 2687 1153 
Q 2394 981 2394 716 
Q 2394 447 2691 278 
Q 2988 109 3584 109 
Q 4178 109 4479 278 
Q 4781 447 4781 716 
Q 4781 984 4481 1154 
Q 4181 1325 3584 1325 
z
" transform="scale(0.015625)"/>
      <path id="MalgunGothicBold-976" d="M 4872 -563 
L 4872 2388 
L 4422 2388 
L 4422 -384 
L 3647 -384 
L 3647 5344 
L 4422 5344 
L 4422 3047 
L 4872 3047 
L 4872 5466 
L 5650 5466 
L 5650 -563 
L 4872 -563 
z
M 2956 897 
Q 2250 1453 1913 2094 
Q 1519 1278 897 750 
L 294 1222 
Q 844 1591 1183 2227 
Q 1522 2863 1522 3541 
L 1522 3938 
L 506 3938 
L 506 4603 
L 1516 4603 
L 1516 5369 
L 2284 5369 
L 2284 4603 
L 3303 4603 
L 3303 3938 
L 2291 3938 
L 2291 3519 
Q 2291 2888 2614 2322 
Q 2938 1756 3494 1447 
L 2956 897 
z
" transform="scale(0.015625)"/>
      <path id="MalgunGothicBold-3c0" d="M 4709 2478 
L 4709 4013 
L 3103 4013 
L 3103 4659 
L 4709 4659 
L 4709 5466 
L 5478 5466 
L 5478 2478 
L 4709 2478 
z
M 4172 2906 
Q 3444 2766 850 2766 
L 850 5228 
L 1619 5228 
L 1619 3419 
L 2484 3419 
Q 3181 3419 4078 3547 
L 4172 2906 
z
M 1594 -466 
L 1594 1197 
L 4722 1197 
L 4722 1563 
L 1594 1563 
L 1594 2222 
L 5491 2222 
L 5491 575 
L 2369 575 
L 2369 191 
L 5644 191 
L 5644 -466 
L 1594 -466 
z
" transform="scale(0.015625)"/>
      <path id="MalgunGothicBold-413" d="M 1253 3578 
L 1253 5403 
L 2041 5403 
L 2041 4244 
L 5228 4244 
L 5228 3578 
L 1253 3578 
z
M 403 2578 
L 403 3219 
L 5997 3219 
L 5997 2578 
L 403 2578 
z
M 1222 -459 
L 1222 1184 
L 4391 1184 
L 4391 1563 
L 1222 1563 
L 1222 2203 
L 5172 2203 
L 5172 569 
L 2003 569 
L 2003 178 
L 5319 178 
L 5319 -459 
L 1222 -459 
z
" transform="scale(0.015625)"/>
      <path id="MalgunGothicBold-7ea" d="M 3750 2675 
Q 3672 1828 3251 1365 
Q 2831 903 2181 903 
Q 1463 903 1028 1468 
Q 594 2034 594 2994 
Q 594 3969 1026 4525 
Q 1459 5081 2181 5081 
Q 2834 5081 3254 4617 
Q 3675 4153 3750 3334 
L 4800 3334 
L 4800 5466 
L 5575 5466 
L 5575 -563 
L 4800 -563 
L 4800 2675 
L 3750 2675 
z
M 2181 4416 
Q 1822 4416 1592 4030 
Q 1363 3644 1363 2988 
Q 1363 2334 1602 1948 
Q 1841 1563 2181 1563 
Q 2528 1563 2765 1947 
Q 3003 2331 3003 2988 
Q 3003 3647 2775 4031 
Q 2547 4416 2181 4416 
z
" transform="scale(0.015625)"/>
      <path id="MalgunGothicBold-39f" d="M 5253 3016 
L 5253 1125 
L 4475 1125 
L 4475 5466 
L 5253 5466 
L 5253 3675 
L 6175 3675 
L 6175 3016 
L 5253 3016 
z
M 4219 2522 
Q 3706 2413 3159 2388 
Q 2613 2363 872 2363 
L 872 5088 
L 1650 5088 
L 1650 3022 
Q 3397 3022 4116 3169 
L 4219 2522 
z
M 1484 -353 
L 1484 1722 
L 2272 1722 
L 2272 306 
L 5422 306 
L 5422 -353 
L 1484 -353 
z
" transform="scale(0.015625)"/>
      <path id="MalgunGothicBold-429" d="M 5197 2522 
L 5197 -563 
L 4416 -563 
L 4416 5466 
L 5197 5466 
L 5197 3181 
L 6203 3181 
L 6203 2522 
L 5197 2522 
z
M 3969 1197 
Q 3269 1100 1619 1100 
L 709 1100 
L 709 4953 
L 3584 4953 
L 3584 4294 
L 1491 4294 
L 1491 1753 
L 1794 1753 
Q 3253 1753 3897 1844 
L 3969 1197 
z
" transform="scale(0.015625)"/>
     </defs>
     <use xlink:href="#MalgunGothicBold-25"/>
     <use xlink:href="#MalgunGothicBold-32" transform="translate(63.875 0)"/>
     <use xlink:href="#MalgunGothicBold-37" transform="translate(125.34375 0)"/>
     <use xlink:href="#MalgunGothicBold-3" transform="translate(198.4375 0)"/>
     <use xlink:href="#MalgunGothicBold-765" transform="translate(233.59375 0)"/>
     <use xlink:href="#MalgunGothicBold-75e" transform="translate(333.59375 0)"/>
     <use xlink:href="#MalgunGothicBold-3" transform="translate(433.59375 0)"/>
     <use xlink:href="#MalgunGothicBold-886" transform="translate(468.75 0)"/>
     <use xlink:href="#MalgunGothicBold-a0a" transform="translate(568.75 0)"/>
     <use xlink:href="#MalgunGothicBold-445" transform="translate(668.75 0)"/>
     <use xlink:href="#MalgunGothicBold-1c" transform="translate(768.75 0)"/>
     <use xlink:href="#MalgunGothicBold-3" transform="translate(794.921875 0)"/>
     <use xlink:href="#MalgunGothicBold-2d0" transform="translate(830.078125 0)"/>
     <use xlink:href="#MalgunGothicBold-27b" transform="translate(930.078125 0)"/>
     <use xlink:href="#MalgunGothicBold-872" transform="translate(1030.078125 0)"/>
     <use xlink:href="#MalgunGothicBold-3" transform="translate(1130.078125 0)"/>
     <use xlink:href="#MalgunGothicBold-8ef" transform="translate(1165.234375 0)"/>
     <use xlink:href="#MalgunGothicBold-2c5" transform="translate(1265.234375 0)"/>
     <use xlink:href="#MalgunGothicBold-e" transform="translate(1365.234375 0)"/>
     <use xlink:href="#MalgunGothicBold-3" transform="translate(1391.40625 0)"/>
     <use xlink:href="#MalgunGothicBold-a9b" transform="translate(1426.5625 0)"/>
     <use xlink:href="#MalgunGothicBold-915" transform="translate(1526.5625 0)"/>
     <use xlink:href="#MalgunGothicBold-3" transform="translate(1626.5625 0)"/>
     <use xlink:href="#MalgunGothicBold-976" transform="translate(1661.71875 0)"/>
     <use xlink:href="#MalgunGothicBold-3c0" transform="translate(1761.71875 0)"/>
     <use xlink:href="#MalgunGothicBold-872" transform="translate(1861.71875 0)"/>
     <use xlink:href="#MalgunGothicBold-3" transform="translate(1961.71875 0)"/>
     <use xlink:href="#MalgunGothicBold-413" transform="translate(1996.875 0)"/>
     <use xlink:href="#MalgunGothicBold-7ea" transform="translate(2096.875 0)"/>
     <use xlink:href="#MalgunGothicBold-39f" transform="translate(2196.875 0)"/>
     <use xlink:href="#MalgunGothicBold-429" transform="translate(2296.875 0)"/>
    </g>
   </g>
   <g id="text_2">
    <!-- 입력 -->
    <g transform="translate(60.053642 91.055203) scale(0.12 -0.12)">
     <defs>
      <path id="MalgunGothic-88f" d="M 4947 2400 
L 4947 5466 
L 5416 5466 
L 5416 2400 
L 4947 2400 
z
M 2406 2559 
Q 1731 2559 1304 2959 
Q 878 3359 878 3969 
Q 878 4575 1303 4972 
Q 1728 5369 2406 5369 
Q 3081 5369 3509 4973 
Q 3938 4578 3938 3969 
Q 3938 3356 3508 2957 
Q 3078 2559 2406 2559 
z
M 2406 4966 
Q 1922 4966 1633 4689 
Q 1344 4413 1344 3969 
Q 1344 3522 1631 3242 
Q 1919 2963 2406 2963 
Q 2894 2963 3181 3242 
Q 3469 3522 3469 3969 
Q 3469 4413 3180 4689 
Q 2891 4966 2406 4966 
z
M 1709 -397 
L 1709 2069 
L 2169 2069 
L 2169 1203 
L 4953 1203 
L 4953 2069 
L 5416 2069 
L 5416 -397 
L 1709 -397 
z
M 4953 794 
L 2169 794 
L 2169 13 
L 4953 13 
L 4953 794 
z
" transform="scale(0.015625)"/>
      <path id="MalgunGothic-52f" d="M 3834 2994 
L 3834 3400 
L 4947 3400 
L 4947 4128 
L 3847 4128 
L 3847 4531 
L 4947 4531 
L 4947 5466 
L 5416 5466 
L 5416 1906 
L 4947 1906 
L 4947 2994 
L 3834 2994 
z
M 3828 2297 
Q 3347 2219 2886 2200 
Q 2425 2181 991 2181 
L 991 3950 
L 3009 3950 
L 3009 4794 
L 991 4794 
L 991 5203 
L 3475 5203 
L 3475 3553 
L 1459 3553 
L 1459 2591 
L 2181 2591 
Q 3206 2591 3763 2694 
L 3828 2297 
z
M 4947 -563 
L 4947 1159 
L 1491 1159 
L 1491 1575 
L 5416 1575 
L 5416 -563 
L 4947 -563 
z
" transform="scale(0.015625)"/>
     </defs>
     <use xlink:href="#MalgunGothic-88f"/>
     <use xlink:href="#MalgunGothic-52f" transform="translate(100 0)"/>
    </g>
    <!-- B × 1 × 28 × 28 -->
    <g transform="translate(26.76208 103.055203) scale(0.12 -0.12)">
     <defs>
      <path id="MalgunGothic-25" d="M 609 0 
L 609 4600 
L 1894 4600 
Q 2466 4600 2817 4311 
Q 3169 4022 3169 3547 
Q 3169 3166 2961 2870 
Q 2753 2575 2378 2453 
L 2378 2441 
Q 2844 2391 3122 2089 
Q 3400 1788 3400 1319 
Q 3400 731 2978 365 
Q 2556 0 1919 0 
L 609 0 
z
M 1113 4128 
L 1113 2619 
L 1672 2619 
Q 2134 2619 2387 2839 
Q 2641 3059 2641 3447 
Q 2641 4128 1750 4128 
L 1113 4128 
z
M 1113 2153 
L 1113 469 
L 1859 469 
Q 2334 469 2603 698 
Q 2872 928 2872 1325 
Q 2872 2153 1738 2153 
L 1113 2153 
z
" transform="scale(0.015625)"/>
      <path id="MalgunGothic-3" transform="scale(0.015625)"/>
      <path id="MalgunGothic-150" d="M 3622 831 
L 3328 538 
L 2238 1628 
L 1156 538 
L 863 831 
L 1956 1916 
L 863 3003 
L 1159 3294 
L 2238 2203 
L 3328 3294 
L 3622 3003 
L 2531 1916 
L 3622 831 
z
" transform="scale(0.015625)"/>
      <path id="MalgunGothic-14" d="M 2231 0 
L 1734 0 
L 1734 3972 
Q 1591 3828 1266 3661 
Q 941 3494 672 3428 
L 672 3959 
Q 1016 4056 1409 4275 
Q 1803 4494 2031 4700 
L 2231 4700 
L 2231 0 
z
" transform="scale(0.015625)"/>
      <path id="MalgunGothic-15" d="M 2519 3372 
Q 2519 3784 2275 4018 
Q 2031 4253 1628 4253 
Q 1341 4253 1053 4104 
Q 766 3956 534 3697 
L 534 4234 
Q 981 4675 1691 4675 
Q 2281 4675 2642 4334 
Q 3003 3994 3003 3416 
Q 3003 2919 2772 2545 
Q 2541 2172 1984 1775 
Q 1459 1406 1254 1215 
Q 1050 1025 967 854 
Q 884 684 884 450 
L 3116 450 
L 3116 0 
L 356 0 
L 356 225 
Q 356 603 461 870 
Q 566 1138 811 1392 
Q 1056 1647 1597 2022 
Q 2091 2363 2305 2670 
Q 2519 2978 2519 3372 
z
" transform="scale(0.015625)"/>
      <path id="MalgunGothic-1b" d="M 303 1281 
Q 303 1669 539 2011 
Q 775 2353 1153 2494 
Q 856 2647 675 2915 
Q 494 3184 494 3500 
Q 494 3828 659 4098 
Q 825 4369 1122 4522 
Q 1419 4675 1778 4675 
Q 2334 4675 2700 4342 
Q 3066 4009 3066 3500 
Q 3066 3181 2881 2914 
Q 2697 2647 2413 2494 
Q 2788 2350 3022 2009 
Q 3256 1669 3256 1281 
Q 3256 672 2843 297 
Q 2431 -78 1778 -78 
Q 1131 -78 717 301 
Q 303 681 303 1281 
z
M 809 1328 
Q 809 878 1081 611 
Q 1353 344 1781 344 
Q 2206 344 2482 619 
Q 2759 894 2759 1328 
Q 2759 1731 2482 2011 
Q 2206 2291 1781 2291 
Q 1372 2291 1090 2020 
Q 809 1750 809 1328 
z
M 1003 3459 
Q 1003 3125 1234 2900 
Q 1466 2675 1781 2675 
Q 2097 2675 2330 2900 
Q 2563 3125 2563 3459 
Q 2563 3803 2341 4026 
Q 2119 4250 1781 4250 
Q 1450 4250 1226 4029 
Q 1003 3809 1003 3459 
z
" transform="scale(0.015625)"/>
     </defs>
     <use xlink:href="#MalgunGothic-25"/>
     <use xlink:href="#MalgunGothic-3" transform="translate(58.34375 0)"/>
     <use xlink:href="#MalgunGothic-150" transform="translate(93.5 0)"/>
     <use xlink:href="#MalgunGothic-3" transform="translate(163.5625 0)"/>
     <use xlink:href="#MalgunGothic-14" transform="translate(198.71875 0)"/>
     <use xlink:href="#MalgunGothic-3" transform="translate(253.796875 0)"/>
     <use xlink:href="#MalgunGothic-150" transform="translate(288.953125 0)"/>
     <use xlink:href="#MalgunGothic-3" transform="translate(359.015625 0)"/>
     <use xlink:href="#MalgunGothic-15" transform="translate(394.171875 0)"/>
     <use xlink:href="#MalgunGothic-1b" transform="translate(449.25 0)"/>
     <use xlink:href="#MalgunGothic-3" transform="translate(504.328125 0)"/>
     <use xlink:href="#MalgunGothic-150" transform="translate(539.484375 0)"/>
     <use xlink:href="#MalgunGothic-3" transform="translate(609.546875 0)"/>
     <use xlink:href="#MalgunGothic-15" transform="translate(644.703125 0)"/>
     <use xlink:href="#MalgunGothic-1b" transform="translate(699.78125 0)"/>
    </g>
   </g>
   <g id="patch_7">
    <path d="M 136.687512 93.132 
Q 138.012416 93.132 138.219287 93.132 
" style="fill: none; stroke: #34495e; stroke-linecap: round"/>
    <path d="M 133.819287 90.932 
L 138.219287 93.132 
L 133.819287 95.332 
" style="fill: none; stroke: #34495e; stroke-linecap: round"/>
   </g>
   <g id="text_3">
    <!-- Conv + ReLU -->
    <g transform="translate(169.17488 90.729656) scale(0.12 -0.12)">
     <defs>
      <path id="MalgunGothic-26" d="M 3725 197 
Q 3216 -78 2459 -78 
Q 1488 -78 897 561 
Q 306 1200 306 2213 
Q 306 3281 959 3978 
Q 1613 4675 2644 4675 
Q 3297 4675 3725 4484 
L 3725 3941 
Q 3234 4213 2634 4213 
Q 1813 4213 1325 3659 
Q 838 3106 838 2241 
Q 838 1413 1297 897 
Q 1756 381 2522 381 
Q 3216 381 3725 688 
L 3725 197 
z
" transform="scale(0.015625)"/>
      <path id="MalgunGothic-52" d="M 316 1600 
Q 316 2419 761 2889 
Q 1206 3359 1978 3359 
Q 2697 3359 3111 2907 
Q 3525 2456 3525 1650 
Q 3525 869 3078 395 
Q 2631 -78 1900 -78 
Q 1184 -78 750 384 
Q 316 847 316 1600 
z
M 819 1622 
Q 819 1041 1123 692 
Q 1428 344 1934 344 
Q 2459 344 2739 680 
Q 3019 1016 3019 1634 
Q 3019 2256 2737 2598 
Q 2456 2941 1934 2941 
Q 1425 2941 1122 2587 
Q 819 2234 819 1622 
z
" transform="scale(0.015625)"/>
      <path id="MalgunGothic-51" d="M 3238 0 
L 2741 0 
L 2741 1875 
Q 2741 2941 1963 2941 
Q 1563 2941 1298 2639 
Q 1034 2338 1034 1872 
L 1034 0 
L 538 0 
L 538 3284 
L 1034 3284 
L 1034 2734 
L 1047 2734 
Q 1416 3359 2125 3359 
Q 2666 3359 2952 3012 
Q 3238 2666 3238 2006 
L 3238 0 
z
" transform="scale(0.015625)"/>
      <path id="MalgunGothic-59" d="M 3084 3284 
L 1769 0 
L 1294 0 
L 47 3284 
L 594 3284 
L 1441 872 
Q 1531 609 1556 425 
L 1572 425 
Q 1603 669 1672 863 
L 2563 3284 
L 3084 3284 
z
" transform="scale(0.015625)"/>
      <path id="MalgunGothic-e" d="M 3750 1706 
L 2450 1706 
L 2450 413 
L 2041 413 
L 2041 1706 
L 744 1706 
L 744 2122 
L 2041 2122 
L 2041 3416 
L 2450 3416 
L 2450 2122 
L 3750 2122 
L 3750 1706 
z
" transform="scale(0.015625)"/>
      <path id="MalgunGothic-35" d="M 3866 0 
L 3259 0 
L 2488 1294 
Q 2241 1706 2044 1837 
Q 1847 1969 1569 1969 
L 1113 1969 
L 1113 0 
L 609 0 
L 609 4600 
L 1963 4600 
Q 2597 4600 2970 4272 
Q 3344 3944 3344 3375 
Q 3344 2422 2325 2138 
L 2325 2125 
Q 2519 2041 2645 1902 
Q 2772 1763 3006 1381 
L 3866 0 
z
M 1113 4128 
L 1113 2438 
L 1866 2438 
Q 2291 2438 2552 2686 
Q 2813 2934 2813 3334 
Q 2813 3709 2570 3918 
Q 2328 4128 1872 4128 
L 1113 4128 
z
" transform="scale(0.015625)"/>
      <path id="MalgunGothic-48" d="M 3156 1519 
L 828 1519 
Q 844 950 1133 648 
Q 1422 347 1909 347 
Q 2472 347 2934 719 
L 2934 244 
Q 2494 -78 1794 -78 
Q 1100 -78 708 376 
Q 316 831 316 1634 
Q 316 2381 747 2870 
Q 1178 3359 1816 3359 
Q 2453 3359 2804 2942 
Q 3156 2525 3156 1788 
L 3156 1519 
z
M 2644 1956 
Q 2644 2416 2423 2675 
Q 2203 2934 1809 2934 
Q 1438 2934 1169 2667 
Q 900 2400 834 1956 
L 2644 1956 
z
" transform="scale(0.015625)"/>
      <path id="MalgunGothic-2f" d="M 2972 0 
L 609 0 
L 609 4600 
L 1113 4600 
L 1113 463 
L 2972 463 
L 2972 0 
z
" transform="scale(0.015625)"/>
      <path id="MalgunGothic-38" d="M 3947 1850 
Q 3947 -78 2209 -78 
Q 553 -78 553 1778 
L 553 4600 
L 1056 4600 
L 1056 1813 
Q 1056 381 2272 381 
Q 3441 381 3441 1763 
L 3441 4600 
L 3947 4600 
L 3947 1850 
z
" transform="scale(0.015625)"/>
     </defs>
     <use xlink:href="#MalgunGothic-26"/>
     <use xlink:href="#MalgunGothic-52" transform="translate(63.484375 0)"/>
     <use xlink:href="#MalgunGothic-51" transform="translate(123.390625 0)"/>
     <use xlink:href="#MalgunGothic-59" transform="translate(181.203125 0)"/>
     <use xlink:href="#MalgunGothic-3" transform="translate(229.9375 0)"/>
     <use xlink:href="#MalgunGothic-e" transform="translate(265.09375 0)"/>
     <use xlink:href="#MalgunGothic-3" transform="translate(335.15625 0)"/>
     <use xlink:href="#MalgunGothic-35" transform="translate(370.3125 0)"/>
     <use xlink:href="#MalgunGothic-48" transform="translate(428.265625 0)"/>
     <use xlink:href="#MalgunGothic-2f" transform="translate(481.78125 0)"/>
     <use xlink:href="#MalgunGothic-38" transform="translate(528.265625 0)"/>
    </g>
    <!-- B × 8 × 14 × 14 -->
    <g transform="translate(159.795192 102.729656) scale(0.12 -0.12)">
     <defs>
      <path id="MalgunGothic-17" d="M 2703 4600 
L 2703 1563 
L 3309 1563 
L 3309 1113 
L 2703 1113 
L 2703 0 
L 2213 0 
L 2213 1113 
L 50 1113 
L 50 1534 
Q 728 2297 1295 3109 
Q 1863 3922 2172 4600 
L 2703 4600 
z
M 625 1563 
L 2213 1563 
L 2213 3831 
Q 1613 2788 959 1981 
L 625 1563 
z
" transform="scale(0.015625)"/>
     </defs>
     <use xlink:href="#MalgunGothic-25"/>
     <use xlink:href="#MalgunGothic-3" transform="translate(58.34375 0)"/>
     <use xlink:href="#MalgunGothic-150" transform="translate(93.5 0)"/>
     <use xlink:href="#MalgunGothic-3" transform="translate(163.5625 0)"/>
     <use xlink:href="#MalgunGothic-1b" transform="translate(198.71875 0)"/>
     <use xlink:href="#MalgunGothic-3" transform="translate(253.796875 0)"/>
     <use xlink:href="#MalgunGothic-150" transform="translate(288.953125 0)"/>
     <use xlink:href="#MalgunGothic-3" transform="translate(359.015625 0)"/>
     <use xlink:href="#MalgunGothic-14" transform="translate(394.171875 0)"/>
     <use xlink:href="#MalgunGothic-17" transform="translate(449.25 0)"/>
     <use xlink:href="#MalgunGothic-3" transform="translate(504.328125 0)"/>
     <use xlink:href="#MalgunGothic-150" transform="translate(539.484375 0)"/>
     <use xlink:href="#MalgunGothic-3" transform="translate(609.546875 0)"/>
     <use xlink:href="#MalgunGothic-14" transform="translate(644.703125 0)"/>
     <use xlink:href="#MalgunGothic-17" transform="translate(699.78125 0)"/>
    </g>
   </g>
   <g id="patch_8">
    <path d="M 269.720624 93.132 
Q 271.045529 93.132 271.252399 93.132 
" style="fill: none; stroke: #34495e; stroke-linecap: round"/>
    <path d="M 266.852399 90.932 
L 271.252399 93.132 
L 266.852399 95.332 
" style="fill: none; stroke: #34495e; stroke-linecap: round"/>
   </g>
   <g id="text_4">
    <!-- Conv + ReLU -->
    <g transform="translate(302.207993 90.729656) scale(0.12 -0.12)">
     <use xlink:href="#MalgunGothic-26"/>
     <use xlink:href="#MalgunGothic-52" transform="translate(63.484375 0)"/>
     <use xlink:href="#MalgunGothic-51" transform="translate(123.390625 0)"/>
     <use xlink:href="#MalgunGothic-59" transform="translate(181.203125 0)"/>
     <use xlink:href="#MalgunGothic-3" transform="translate(229.9375 0)"/>
     <use xlink:href="#MalgunGothic-e" transform="translate(265.09375 0)"/>
     <use xlink:href="#MalgunGothic-3" transform="translate(335.15625 0)"/>
     <use xlink:href="#MalgunGothic-35" transform="translate(370.3125 0)"/>
     <use xlink:href="#MalgunGothic-48" transform="translate(428.265625 0)"/>
     <use xlink:href="#MalgunGothic-2f" transform="translate(481.78125 0)"/>
     <use xlink:href="#MalgunGothic-38" transform="translate(528.265625 0)"/>
    </g>
    <!-- B × 16 × 7 × 7 -->
    <g transform="translate(296.132993 102.729656) scale(0.12 -0.12)">
     <defs>
      <path id="MalgunGothic-19" d="M 2981 4069 
Q 2619 4250 2228 4250 
Q 1591 4250 1228 3689 
Q 866 3128 869 2213 
L 884 2213 
Q 1203 2872 1938 2872 
Q 2547 2872 2903 2478 
Q 3259 2084 3259 1450 
Q 3259 797 2857 359 
Q 2456 -78 1825 -78 
Q 1116 -78 736 478 
Q 356 1034 356 2019 
Q 356 3181 847 3928 
Q 1338 4675 2222 4675 
Q 2700 4675 2981 4544 
L 2981 4069 
z
M 906 1506 
Q 906 1022 1165 683 
Q 1425 344 1844 344 
Q 2247 344 2498 645 
Q 2750 947 2750 1388 
Q 2750 1888 2509 2167 
Q 2269 2447 1838 2447 
Q 1444 2447 1175 2173 
Q 906 1900 906 1506 
z
" transform="scale(0.015625)"/>
      <path id="MalgunGothic-1a" d="M 3213 4297 
Q 2478 3006 2064 1918 
Q 1650 831 1550 0 
L 1009 0 
Q 1084 531 1290 1176 
Q 1497 1822 1815 2537 
Q 2134 3253 2631 4147 
L 291 4147 
L 291 4600 
L 3213 4600 
L 3213 4297 
z
" transform="scale(0.015625)"/>
     </defs>
     <use xlink:href="#MalgunGothic-25"/>
     <use xlink:href="#MalgunGothic-3" transform="translate(58.34375 0)"/>
     <use xlink:href="#MalgunGothic-150" transform="translate(93.5 0)"/>
     <use xlink:href="#MalgunGothic-3" transform="translate(163.5625 0)"/>
     <use xlink:href="#MalgunGothic-14" transform="translate(198.71875 0)"/>
     <use xlink:href="#MalgunGothic-19" transform="translate(253.796875 0)"/>
     <use xlink:href="#MalgunGothic-3" transform="translate(308.875 0)"/>
     <use xlink:href="#MalgunGothic-150" transform="translate(344.03125 0)"/>
     <use xlink:href="#MalgunGothic-3" transform="translate(414.09375 0)"/>
     <use xlink:href="#MalgunGothic-1a" transform="translate(449.25 0)"/>
     <use xlink:href="#MalgunGothic-3" transform="translate(504.328125 0)"/>
     <use xlink:href="#MalgunGothic-150" transform="translate(539.484375 0)"/>
     <use xlink:href="#MalgunGothic-3" transform="translate(609.546875 0)"/>
     <use xlink:href="#MalgunGothic-1a" transform="translate(644.703125 0)"/>
    </g>
   </g>
   <g id="patch_9">
    <path d="M 402.753737 93.132 
Q 404.078641 93.132 404.285512 93.132 
" style="fill: none; stroke: #34495e; stroke-linecap: round"/>
    <path d="M 399.885512 90.932 
L 404.285512 93.132 
L 399.885512 95.332 
" style="fill: none; stroke: #34495e; stroke-linecap: round"/>
   </g>
   <g id="text_5">
    <!-- Flatten(1) -->
    <g transform="translate(445.837668 90.729656) scale(0.12 -0.12)">
     <defs>
      <path id="MalgunGothic-29" d="M 2922 4134 
L 1113 4134 
L 1113 2516 
L 2788 2516 
L 2788 2050 
L 1113 2050 
L 1113 0 
L 609 0 
L 609 4600 
L 2922 4600 
L 2922 4134 
z
" transform="scale(0.015625)"/>
      <path id="MalgunGothic-4f" d="M 541 0 
L 541 4859 
L 1034 4859 
L 1034 0 
L 541 0 
z
" transform="scale(0.015625)"/>
      <path id="MalgunGothic-44" d="M 616 3050 
Q 1097 3359 1722 3359 
Q 2866 3359 2866 2147 
L 2866 0 
L 2369 0 
L 2369 516 
L 2350 516 
Q 2009 -78 1341 -78 
Q 859 -78 576 180 
Q 294 438 294 869 
Q 294 1784 1375 1934 
L 2366 2078 
Q 2366 2934 1684 2934 
Q 1084 2934 616 2525 
L 616 3050 
z
M 1563 1559 
Q 1178 1509 993 1371 
Q 809 1234 809 903 
Q 809 653 986 500 
Q 1163 347 1450 347 
Q 1847 347 2106 628 
Q 2366 909 2366 1334 
L 2366 1666 
L 1563 1559 
z
" transform="scale(0.015625)"/>
      <path id="MalgunGothic-57" d="M 2031 31 
Q 1844 -72 1553 -72 
Q 706 -72 706 881 
L 706 2856 
L 138 2856 
L 138 3284 
L 706 3284 
L 706 4091 
L 1200 4250 
L 1200 3284 
L 2031 3284 
L 2031 2856 
L 1200 2856 
L 1200 972 
Q 1200 625 1315 487 
Q 1431 350 1691 350 
Q 1888 350 2031 459 
L 2031 31 
z
" transform="scale(0.015625)"/>
      <path id="MalgunGothic-b" d="M 1438 -1044 
Q 447 88 447 1753 
Q 447 3431 1438 4600 
L 1888 4600 
Q 878 3372 878 1759 
Q 878 153 1881 -1044 
L 1438 -1044 
z
" transform="scale(0.015625)"/>
      <path id="MalgunGothic-c" d="M 81 -1044 
Q 1081 150 1081 1759 
Q 1081 3378 72 4600 
L 525 4600 
Q 1522 3431 1522 1753 
Q 1522 88 525 -1044 
L 81 -1044 
z
" transform="scale(0.015625)"/>
     </defs>
     <use xlink:href="#MalgunGothic-29"/>
     <use xlink:href="#MalgunGothic-4f" transform="translate(49.859375 0)"/>
     <use xlink:href="#MalgunGothic-44" transform="translate(74.46875 0)"/>
     <use xlink:href="#MalgunGothic-57" transform="translate(126.46875 0)"/>
     <use xlink:href="#MalgunGothic-57" transform="translate(160.9375 0)"/>
     <use xlink:href="#MalgunGothic-48" transform="translate(194.578125 0)"/>
     <use xlink:href="#MalgunGothic-51" transform="translate(248.09375 0)"/>
     <use xlink:href="#MalgunGothic-b" transform="translate(305.90625 0)"/>
     <use xlink:href="#MalgunGothic-14" transform="translate(336.375 0)"/>
     <use xlink:href="#MalgunGothic-c" transform="translate(391.453125 0)"/>
    </g>
    <!-- B × 784 -->
    <g transform="translate(449.315793 102.729656) scale(0.12 -0.12)">
     <use xlink:href="#MalgunGothic-25"/>
     <use xlink:href="#MalgunGothic-3" transform="translate(58.34375 0)"/>
     <use xlink:href="#MalgunGothic-150" transform="translate(93.5 0)"/>
     <use xlink:href="#MalgunGothic-3" transform="translate(163.5625 0)"/>
     <use xlink:href="#MalgunGothic-1a" transform="translate(198.71875 0)"/>
     <use xlink:href="#MalgunGothic-1b" transform="translate(253.796875 0)"/>
     <use xlink:href="#MalgunGothic-17" transform="translate(308.875 0)"/>
    </g>
   </g>
   <g id="patch_10">
    <path d="M 535.786849 93.132 
Q 537.111754 93.132 537.318625 93.132 
" style="fill: none; stroke: #34495e; stroke-linecap: round"/>
    <path d="M 532.918625 90.932 
L 537.318625 93.132 
L 532.918625 95.332 
" style="fill: none; stroke: #34495e; stroke-linecap: round"/>
   </g>
   <g id="text_6">
    <!-- Linear -->
    <g transform="translate(587.90828 90.729656) scale(0.12 -0.12)">
     <defs>
      <path id="MalgunGothic-4c" d="M 472 4466 
Q 472 4606 565 4701 
Q 659 4797 794 4797 
Q 934 4797 1029 4700 
Q 1125 4603 1125 4466 
Q 1125 4325 1029 4231 
Q 934 4138 794 4138 
Q 659 4138 565 4230 
Q 472 4322 472 4466 
z
M 541 0 
L 541 3284 
L 1034 3284 
L 1034 0 
L 541 0 
z
" transform="scale(0.015625)"/>
      <path id="MalgunGothic-55" d="M 2225 2775 
Q 2084 2881 1828 2881 
Q 1491 2881 1262 2553 
Q 1034 2225 1034 1681 
L 1034 0 
L 538 0 
L 538 3284 
L 1034 3284 
L 1034 2603 
L 1047 2603 
Q 1159 2950 1389 3145 
Q 1619 3341 1903 3341 
Q 2109 3341 2225 3297 
L 2225 2775 
z
" transform="scale(0.015625)"/>
     </defs>
     <use xlink:href="#MalgunGothic-2f"/>
     <use xlink:href="#MalgunGothic-4c" transform="translate(48 0)"/>
     <use xlink:href="#MalgunGothic-51" transform="translate(72.609375 0)"/>
     <use xlink:href="#MalgunGothic-48" transform="translate(130.421875 0)"/>
     <use xlink:href="#MalgunGothic-44" transform="translate(183.9375 0)"/>
     <use xlink:href="#MalgunGothic-55" transform="translate(235.9375 0)"/>
    </g>
    <!-- B × d -->
    <g transform="translate(588.65078 102.729656) scale(0.12 -0.12)">
     <defs>
      <path id="MalgunGothic-47" d="M 3313 0 
L 2822 0 
L 2822 566 
L 2809 566 
Q 2444 -78 1675 -78 
Q 1056 -78 686 364 
Q 316 806 316 1566 
Q 316 2375 728 2867 
Q 1141 3359 1816 3359 
Q 2494 3359 2809 2822 
L 2822 2822 
L 2822 4859 
L 3313 4859 
L 3313 0 
z
M 2822 1978 
Q 2822 2378 2550 2659 
Q 2278 2941 1872 2941 
Q 1384 2941 1101 2577 
Q 819 2213 819 1591 
Q 819 1025 1086 684 
Q 1353 344 1813 344 
Q 2250 344 2536 666 
Q 2822 988 2822 1478 
L 2822 1978 
z
" transform="scale(0.015625)"/>
     </defs>
     <use xlink:href="#MalgunGothic-25"/>
     <use xlink:href="#MalgunGothic-3" transform="translate(58.34375 0)"/>
     <use xlink:href="#MalgunGothic-150" transform="translate(93.5 0)"/>
     <use xlink:href="#MalgunGothic-3" transform="translate(163.5625 0)"/>
     <use xlink:href="#MalgunGothic-47" transform="translate(198.71875 0)"/>
    </g>
   </g>
   <g id="text_7">
    <!-- B는 배치 크기. flatten은 배치 축을 보존한다. 두 Conv 모두 kernel=4, stride=2, padding=1. -->
    <g style="fill: #34495e" transform="translate(11.634437 159.0132) scale(0.11 -0.11)">
     <defs>
      <path id="MalgunGothic-415" d="M 1409 3225 
L 1409 5247 
L 1875 5247 
L 1875 3641 
L 5172 3641 
L 5172 3225 
L 1409 3225 
z
M 403 1972 
L 403 2394 
L 5997 2394 
L 5997 1972 
L 403 1972 
z
M 1381 -331 
L 1381 1459 
L 1850 1459 
L 1850 91 
L 5184 91 
L 5184 -331 
L 1381 -331 
z
" transform="scale(0.015625)"/>
      <path id="MalgunGothic-611" d="M 5069 -563 
L 5069 2584 
L 4319 2584 
L 4319 -378 
L 3859 -378 
L 3859 5344 
L 4319 5344 
L 4319 3003 
L 5069 3003 
L 5069 5466 
L 5538 5466 
L 5538 -563 
L 5069 -563 
z
M 763 1069 
L 763 5031 
L 1222 5031 
L 1222 3419 
L 2725 3419 
L 2725 5031 
L 3194 5031 
L 3194 1069 
L 763 1069 
z
M 2725 3009 
L 1222 3009 
L 1222 1478 
L 2725 1478 
L 2725 3009 
z
" transform="scale(0.015625)"/>
      <path id="MalgunGothic-9d4" d="M 4941 -563 
L 4941 5466 
L 5409 5466 
L 5409 -563 
L 4941 -563 
z
M 3969 966 
Q 3447 1272 2995 1773 
Q 2544 2275 2406 2656 
Q 2281 2259 1817 1686 
Q 1353 1113 891 831 
L 531 1197 
Q 1197 1519 1683 2242 
Q 2169 2966 2169 3628 
L 2169 4206 
L 678 4206 
L 678 4622 
L 2163 4622 
L 2163 5466 
L 2631 5466 
L 2631 4622 
L 4128 4622 
L 4128 4206 
L 2638 4206 
L 2631 3603 
Q 2625 2991 3111 2314 
Q 3597 1638 4300 1338 
L 3969 966 
z
" transform="scale(0.015625)"/>
      <path id="MalgunGothic-a3a" d="M 403 550 
L 403 966 
L 4494 966 
Q 4584 1969 4609 2791 
L 972 2600 
L 872 3059 
L 4616 3188 
L 4616 4475 
L 1178 4475 
L 1178 4891 
L 5075 4891 
L 5075 3138 
Q 5075 2347 4947 966 
L 5997 966 
L 5997 550 
L 403 550 
z
" transform="scale(0.015625)"/>
      <path id="MalgunGothic-31b" d="M 4884 -563 
L 4884 5466 
L 5350 5466 
L 5350 -563 
L 4884 -563 
z
M 3675 4909 
Q 3653 3656 2956 2611 
Q 2259 1566 959 844 
L 603 1222 
Q 1559 1619 2293 2478 
Q 3028 3338 3175 4494 
L 850 4494 
L 850 4909 
L 3675 4909 
z
" transform="scale(0.015625)"/>
      <path id="MalgunGothic-11" d="M 356 275 
Q 356 422 459 523 
Q 563 625 700 625 
Q 838 625 941 523 
Q 1044 422 1044 275 
Q 1044 138 942 33 
Q 841 -72 700 -72 
Q 559 -72 457 29 
Q 356 131 356 275 
z
" transform="scale(0.015625)"/>
      <path id="MalgunGothic-49" d="M 2128 4422 
Q 1975 4506 1778 4506 
Q 1222 4506 1222 3800 
L 1222 3284 
L 1991 3284 
L 1991 2856 
L 1222 2856 
L 1222 0 
L 734 0 
L 734 2856 
L 172 2856 
L 172 3284 
L 734 3284 
L 734 3825 
Q 734 4341 1026 4636 
Q 1319 4931 1753 4931 
Q 1994 4931 2128 4875 
L 2128 4422 
z
" transform="scale(0.015625)"/>
      <path id="MalgunGothic-875" d="M 3200 2950 
Q 2309 2950 1817 3287 
Q 1325 3625 1325 4159 
Q 1325 4694 1815 5028 
Q 2306 5363 3200 5363 
Q 4094 5363 4587 5028 
Q 5081 4694 5081 4159 
Q 5081 3625 4584 3287 
Q 4088 2950 3200 2950 
z
M 3200 4966 
Q 2541 4966 2177 4747 
Q 1813 4528 1813 4159 
Q 1813 3791 2177 3572 
Q 2541 3353 3200 3353 
Q 3859 3353 4223 3572 
Q 4588 3791 4588 4159 
Q 4588 4528 4223 4747 
Q 3859 4966 3200 4966 
z
M 403 1919 
L 403 2344 
L 5997 2344 
L 5997 1919 
L 403 1919 
z
M 1338 -359 
L 1338 1331 
L 1813 1331 
L 1813 56 
L 5203 56 
L 5203 -359 
L 1338 -359 
z
" transform="scale(0.015625)"/>
      <path id="MalgunGothic-9b5" d="M 5466 3116 
Q 4794 3184 4103 3512 
Q 3413 3841 3206 4141 
Q 2972 3816 2308 3505 
Q 1644 3194 966 3122 
L 697 3547 
Q 1359 3547 2046 3836 
Q 2734 4125 2919 4538 
L 1056 4538 
L 1056 4953 
L 2969 4953 
L 2969 5516 
L 3444 5516 
L 3444 4953 
L 5344 4953 
L 5344 4538 
L 3481 4538 
Q 3669 4119 4353 3836 
Q 5038 3553 5703 3553 
L 5466 3116 
z
M 4609 -563 
L 4609 1075 
L 1197 1075 
L 1197 1491 
L 2963 1491 
L 2963 2222 
L 403 2222 
L 403 2644 
L 5997 2644 
L 5997 2222 
L 3438 2222 
L 3438 1491 
L 5075 1491 
L 5075 -563 
L 4609 -563 
z
" transform="scale(0.015625)"/>
      <path id="MalgunGothic-876" d="M 3200 3316 
Q 2269 3316 1769 3605 
Q 1269 3894 1269 4378 
Q 1269 4859 1770 5150 
Q 2272 5441 3200 5441 
Q 4138 5441 4634 5155 
Q 5131 4869 5131 4378 
Q 5131 3891 4632 3603 
Q 4134 3316 3200 3316 
z
M 3200 5069 
Q 2503 5069 2128 4878 
Q 1753 4688 1753 4378 
Q 1753 4063 2131 3872 
Q 2509 3681 3200 3681 
Q 3884 3681 4265 3875 
Q 4647 4069 4647 4378 
Q 4647 4681 4267 4875 
Q 3888 5069 3200 5069 
z
M 403 2419 
L 403 2803 
L 5997 2803 
L 5997 2419 
L 403 2419 
z
M 1306 -500 
L 1306 878 
L 4628 878 
L 4628 1466 
L 1306 1466 
L 1306 1856 
L 5088 1856 
L 5088 513 
L 1766 513 
L 1766 -109 
L 5247 -109 
L 5247 -500 
L 1306 -500 
z
" transform="scale(0.015625)"/>
      <path id="MalgunGothic-63f" d="M 3438 2053 
L 3438 756 
L 5997 756 
L 5997 341 
L 403 341 
L 403 756 
L 2963 756 
L 2963 2053 
L 1306 2053 
L 1306 4947 
L 1772 4947 
L 1772 3903 
L 4628 3903 
L 4628 4947 
L 5088 4947 
L 5088 2053 
L 3438 2053 
z
M 4628 3481 
L 1772 3481 
L 1772 2478 
L 4628 2478 
L 4628 3481 
z
" transform="scale(0.015625)"/>
      <path id="MalgunGothic-8d1" d="M 5459 3084 
Q 4731 3191 4090 3539 
Q 3450 3888 3206 4269 
Q 2988 3922 2341 3558 
Q 1694 3194 972 3084 
L 697 3463 
Q 1541 3531 2203 3934 
Q 2866 4338 2963 4800 
L 1025 4800 
L 1025 5222 
L 5375 5222 
L 5375 4800 
L 3438 4800 
Q 3534 4331 4187 3928 
Q 4841 3525 5703 3463 
L 5459 3084 
z
M 403 1919 
L 403 2344 
L 2963 2344 
L 2963 3322 
L 3438 3322 
L 3438 2344 
L 5997 2344 
L 5997 1919 
L 403 1919 
z
M 1325 -359 
L 1325 1459 
L 1791 1459 
L 1791 56 
L 5203 56 
L 5203 -359 
L 1325 -359 
z
" transform="scale(0.015625)"/>
      <path id="MalgunGothic-b1e" d="M 5125 2713 
L 5125 978 
L 4659 978 
L 4659 5466 
L 5125 5466 
L 5125 3138 
L 6034 3138 
L 6034 2713 
L 5125 2713 
z
M 447 4244 
L 447 4659 
L 2003 4659 
L 2003 5441 
L 2478 5441 
L 2478 4659 
L 4031 4659 
L 4031 4244 
L 447 4244 
z
M 2241 1650 
Q 1559 1650 1161 1979 
Q 763 2309 763 2791 
Q 763 3266 1161 3594 
Q 1559 3922 2247 3922 
Q 2931 3922 3331 3595 
Q 3731 3269 3731 2791 
Q 3731 2316 3329 1983 
Q 2928 1650 2241 1650 
z
M 2247 3525 
Q 1772 3525 1497 3319 
Q 1222 3113 1222 2791 
Q 1222 2466 1498 2256 
Q 1775 2047 2247 2047 
Q 2719 2047 2995 2256 
Q 3272 2466 3272 2791 
Q 3272 3113 2997 3319 
Q 2722 3525 2247 3525 
z
M 1459 -453 
L 1459 1216 
L 1919 1216 
L 1919 -38 
L 5313 -38 
L 5313 -453 
L 1459 -453 
z
" transform="scale(0.015625)"/>
      <path id="MalgunGothic-42c" d="M 5094 2669 
L 5094 -563 
L 4628 -563 
L 4628 5466 
L 5094 5466 
L 5094 3091 
L 6156 3091 
L 6156 2669 
L 5094 2669 
z
M 4050 1234 
Q 3538 1172 3003 1159 
Q 2469 1147 838 1147 
L 838 4934 
L 3653 4934 
L 3653 4519 
L 1306 4519 
L 1306 1563 
Q 3566 1563 4013 1638 
L 4050 1234 
z
" transform="scale(0.015625)"/>
      <path id="MalgunGothic-47f" d="M 1306 2969 
L 1306 5247 
L 5094 5247 
L 5094 4831 
L 1772 4831 
L 1772 3384 
L 5191 3384 
L 5191 2969 
L 1306 2969 
z
M 3438 1716 
L 3438 -556 
L 2963 -556 
L 2963 1716 
L 403 1716 
L 403 2131 
L 5997 2131 
L 5997 1716 
L 3438 1716 
z
" transform="scale(0.015625)"/>
      <path id="MalgunGothic-5bb" d="M 5063 4903 
L 5063 2175 
L 3438 2175 
L 3438 769 
L 5997 769 
L 5997 347 
L 403 347 
L 403 769 
L 2963 769 
L 2963 2175 
L 1331 2175 
L 1331 4903 
L 5063 4903 
z
M 4594 2600 
L 4594 4481 
L 1806 4481 
L 1806 2600 
L 4594 2600 
z
" transform="scale(0.015625)"/>
      <path id="MalgunGothic-4e" d="M 3228 0 
L 2525 0 
L 1047 1575 
L 1034 1575 
L 1034 0 
L 538 0 
L 538 4859 
L 1034 4859 
L 1034 1778 
L 1047 1778 
L 2450 3284 
L 3106 3284 
L 1563 1694 
L 3228 0 
z
" transform="scale(0.015625)"/>
      <path id="MalgunGothic-20" d="M 3750 2397 
L 744 2397 
L 744 2803 
L 3750 2803 
L 3750 2397 
z
M 3750 1031 
L 744 1031 
L 744 1441 
L 3750 1441 
L 3750 1031 
z
" transform="scale(0.015625)"/>
      <path id="MalgunGothic-f" d="M 988 725 
L 472 -850 
L 125 -850 
L 503 725 
L 988 725 
z
" transform="scale(0.015625)"/>
      <path id="MalgunGothic-56" d="M 331 669 
Q 763 350 1278 350 
Q 1978 350 1978 822 
Q 1978 1025 1825 1158 
Q 1672 1291 1222 1459 
Q 703 1666 520 1878 
Q 338 2091 338 2416 
Q 338 2834 700 3096 
Q 1063 3359 1584 3359 
Q 2003 3359 2341 3213 
L 2341 2697 
Q 1975 2934 1506 2934 
Q 1200 2934 1025 2798 
Q 850 2663 850 2459 
Q 850 2241 979 2125 
Q 1109 2009 1544 1838 
Q 2131 1609 2309 1390 
Q 2488 1172 2488 869 
Q 2488 431 2127 176 
Q 1766 -78 1203 -78 
Q 694 -78 331 122 
L 331 669 
z
" transform="scale(0.015625)"/>
      <path id="MalgunGothic-53" d="M 1034 481 
L 1034 -1513 
L 538 -1513 
L 538 3284 
L 1034 3284 
L 1034 2703 
L 1047 2703 
Q 1438 3359 2184 3359 
Q 2809 3359 3171 2920 
Q 3534 2481 3534 1738 
Q 3534 906 3126 414 
Q 2719 -78 2034 -78 
Q 1394 -78 1047 481 
L 1034 481 
z
M 1034 1331 
Q 1034 922 1307 633 
Q 1581 344 1991 344 
Q 2475 344 2751 716 
Q 3028 1088 3028 1753 
Q 3028 2300 2767 2620 
Q 2506 2941 2072 2941 
Q 1619 2941 1326 2619 
Q 1034 2297 1034 1806 
L 1034 1331 
z
" transform="scale(0.015625)"/>
      <path id="MalgunGothic-4a" d="M 3313 259 
Q 3313 -1547 1603 -1547 
Q 1003 -1547 538 -1313 
L 538 -806 
Q 1088 -1116 1600 -1116 
Q 2822 -1116 2822 194 
L 2822 559 
L 2809 559 
Q 2422 -78 1675 -78 
Q 1066 -78 691 362 
Q 316 803 316 1534 
Q 316 2375 722 2867 
Q 1128 3359 1816 3359 
Q 2484 3359 2809 2822 
L 2822 2822 
L 2822 3284 
L 3313 3284 
L 3313 259 
z
M 2822 1978 
Q 2822 2378 2547 2659 
Q 2272 2941 1878 2941 
Q 1384 2941 1101 2577 
Q 819 2213 819 1572 
Q 819 1016 1092 680 
Q 1366 344 1803 344 
Q 2247 344 2534 666 
Q 2822 988 2822 1478 
L 2822 1978 
z
" transform="scale(0.015625)"/>
     </defs>
     <use xlink:href="#MalgunGothic-25"/>
     <use xlink:href="#MalgunGothic-415" transform="translate(58.34375 0)"/>
     <use xlink:href="#MalgunGothic-3" transform="translate(158.34375 0)"/>
     <use xlink:href="#MalgunGothic-611" transform="translate(193.5 0)"/>
     <use xlink:href="#MalgunGothic-9d4" transform="translate(293.5 0)"/>
     <use xlink:href="#MalgunGothic-3" transform="translate(393.5 0)"/>
     <use xlink:href="#MalgunGothic-a3a" transform="translate(428.65625 0)"/>
     <use xlink:href="#MalgunGothic-31b" transform="translate(528.65625 0)"/>
     <use xlink:href="#MalgunGothic-11" transform="translate(628.65625 0)"/>
     <use xlink:href="#MalgunGothic-3" transform="translate(650.53125 0)"/>
     <use xlink:href="#MalgunGothic-49" transform="translate(685.6875 0)"/>
     <use xlink:href="#MalgunGothic-4f" transform="translate(717.328125 0)"/>
     <use xlink:href="#MalgunGothic-44" transform="translate(741.9375 0)"/>
     <use xlink:href="#MalgunGothic-57" transform="translate(793.9375 0)"/>
     <use xlink:href="#MalgunGothic-57" transform="translate(828.40625 0)"/>
     <use xlink:href="#MalgunGothic-48" transform="translate(862.046875 0)"/>
     <use xlink:href="#MalgunGothic-51" transform="translate(915.5625 0)"/>
     <use xlink:href="#MalgunGothic-875" transform="translate(973.375 0)"/>
     <use xlink:href="#MalgunGothic-3" transform="translate(1073.375 0)"/>
     <use xlink:href="#MalgunGothic-611" transform="translate(1108.53125 0)"/>
     <use xlink:href="#MalgunGothic-9d4" transform="translate(1208.53125 0)"/>
     <use xlink:href="#MalgunGothic-3" transform="translate(1308.53125 0)"/>
     <use xlink:href="#MalgunGothic-9b5" transform="translate(1343.6875 0)"/>
     <use xlink:href="#MalgunGothic-876" transform="translate(1443.6875 0)"/>
     <use xlink:href="#MalgunGothic-3" transform="translate(1543.6875 0)"/>
     <use xlink:href="#MalgunGothic-63f" transform="translate(1578.84375 0)"/>
     <use xlink:href="#MalgunGothic-8d1" transform="translate(1678.84375 0)"/>
     <use xlink:href="#MalgunGothic-b1e" transform="translate(1778.84375 0)"/>
     <use xlink:href="#MalgunGothic-42c" transform="translate(1878.84375 0)"/>
     <use xlink:href="#MalgunGothic-11" transform="translate(1978.84375 0)"/>
     <use xlink:href="#MalgunGothic-3" transform="translate(2000.71875 0)"/>
     <use xlink:href="#MalgunGothic-47f" transform="translate(2035.875 0)"/>
     <use xlink:href="#MalgunGothic-3" transform="translate(2135.875 0)"/>
     <use xlink:href="#MalgunGothic-26" transform="translate(2171.03125 0)"/>
     <use xlink:href="#MalgunGothic-52" transform="translate(2234.515625 0)"/>
     <use xlink:href="#MalgunGothic-51" transform="translate(2294.421875 0)"/>
     <use xlink:href="#MalgunGothic-59" transform="translate(2352.234375 0)"/>
     <use xlink:href="#MalgunGothic-3" transform="translate(2400.96875 0)"/>
     <use xlink:href="#MalgunGothic-5bb" transform="translate(2436.125 0)"/>
     <use xlink:href="#MalgunGothic-47f" transform="translate(2536.125 0)"/>
     <use xlink:href="#MalgunGothic-3" transform="translate(2636.125 0)"/>
     <use xlink:href="#MalgunGothic-4e" transform="translate(2671.28125 0)"/>
     <use xlink:href="#MalgunGothic-48" transform="translate(2719.734375 0)"/>
     <use xlink:href="#MalgunGothic-55" transform="translate(2773.25 0)"/>
     <use xlink:href="#MalgunGothic-51" transform="translate(2808.421875 0)"/>
     <use xlink:href="#MalgunGothic-48" transform="translate(2866.234375 0)"/>
     <use xlink:href="#MalgunGothic-4f" transform="translate(2919.75 0)"/>
     <use xlink:href="#MalgunGothic-20" transform="translate(2944.359375 0)"/>
     <use xlink:href="#MalgunGothic-17" transform="translate(3014.421875 0)"/>
     <use xlink:href="#MalgunGothic-f" transform="translate(3069.5 0)"/>
     <use xlink:href="#MalgunGothic-3" transform="translate(3091.375 0)"/>
     <use xlink:href="#MalgunGothic-56" transform="translate(3126.53125 0)"/>
     <use xlink:href="#MalgunGothic-57" transform="translate(3169.84375 0)"/>
     <use xlink:href="#MalgunGothic-55" transform="translate(3204.3125 0)"/>
     <use xlink:href="#MalgunGothic-4c" transform="translate(3239.671875 0)"/>
     <use xlink:href="#MalgunGothic-47" transform="translate(3264.28125 0)"/>
     <use xlink:href="#MalgunGothic-48" transform="translate(3324.484375 0)"/>
     <use xlink:href="#MalgunGothic-20" transform="translate(3378 0)"/>
     <use xlink:href="#MalgunGothic-15" transform="translate(3448.0625 0)"/>
     <use xlink:href="#MalgunGothic-f" transform="translate(3503.140625 0)"/>
     <use xlink:href="#MalgunGothic-3" transform="translate(3525.015625 0)"/>
     <use xlink:href="#MalgunGothic-53" transform="translate(3560.171875 0)"/>
     <use xlink:href="#MalgunGothic-44" transform="translate(3618.8125 0)"/>
     <use xlink:href="#MalgunGothic-47" transform="translate(3670.8125 0)"/>
     <use xlink:href="#MalgunGothic-47" transform="translate(3731.015625 0)"/>
     <use xlink:href="#MalgunGothic-4c" transform="translate(3791.21875 0)"/>
     <use xlink:href="#MalgunGothic-51" transform="translate(3815.828125 0)"/>
     <use xlink:href="#MalgunGothic-4a" transform="translate(3873.640625 0)"/>
     <use xlink:href="#MalgunGothic-20" transform="translate(3933.84375 0)"/>
     <use xlink:href="#MalgunGothic-14" transform="translate(4003.90625 0)"/>
     <use xlink:href="#MalgunGothic-11" transform="translate(4058.984375 0)"/>
    </g>
   </g>
  </g>
 </g>
 <defs>
  <clipPath id="pecfa53f50a">
   <rect x="7.2" y="7.2" width="669.6" height="171.864"/>
  </clipPath>
 </defs>
</svg>
